<svg width="1948" height="1949" xmlns="http://www.w3.org/2000/svg" xmlns:xlink="http://www.w3.org/1999/xlink" xml:space="preserve" overflow="hidden"><defs><clipPath id="clip0"><rect x="1226" y="263" width="1948" height="1949"/></clipPath><clipPath id="clip1"><rect x="1225" y="263" width="1949" height="1948"/></clipPath><clipPath id="clip2"><rect x="1225" y="263" width="1949" height="1948"/></clipPath><clipPath id="clip3"><rect x="1225" y="263" width="1949" height="1948"/></clipPath><clipPath id="clip4"><rect x="1225" y="263" width="1949" height="1948"/></clipPath><clipPath id="clip5"><rect x="1432" y="511" width="1674" height="1395"/></clipPath><clipPath id="clip6"><rect x="1225" y="263" width="1949" height="1948"/></clipPath><clipPath id="clip7"><rect x="1432" y="511" width="1674" height="1395"/></clipPath><clipPath id="clip8"><rect x="1225" y="263" width="1949" height="1948"/></clipPath><clipPath id="clip9"><rect x="1432" y="511" width="1674" height="1395"/></clipPath><clipPath id="clip10"><rect x="1225" y="263" width="1949" height="1948"/></clipPath><clipPath id="clip11"><rect x="1225" y="263" width="1949" height="1948"/></clipPath><clipPath id="clip12"><rect x="1225" y="263" width="1949" height="1948"/></clipPath><clipPath id="clip13"><rect x="1225" y="263" width="1949" height="1948"/></clipPath><clipPath id="clip14"><rect x="1225" y="263" width="1949" height="1948"/></clipPath><clipPath id="clip15"><rect x="1225" y="263" width="1949" height="1948"/></clipPath><clipPath id="clip16"><rect x="1225" y="263" width="1949" height="1948"/></clipPath><clipPath id="clip17"><rect x="1225" y="263" width="1949" height="1948"/></clipPath><clipPath id="clip18"><rect x="1225" y="263" width="1949" height="1948"/></clipPath><clipPath id="clip19"><rect x="1225" y="263" width="1949" height="1948"/></clipPath><clipPath id="clip20"><rect x="1225" y="263" width="1949" height="1948"/></clipPath><clipPath id="clip21"><rect x="1225" y="263" width="1949" height="1948"/></clipPath><clipPath id="clip22"><rect x="1225" y="263" width="1949" height="1948"/></clipPath><clipPath id="clip23"><rect x="1225" y="263" width="1949" height="1948"/></clipPath><clipPath id="clip24"><rect x="1225" y="263" width="1949" height="1948"/></clipPath><clipPath id="clip25"><rect x="1225" y="263" width="1949" height="1948"/></clipPath><clipPath id="clip26"><rect x="1225" y="263" width="1949" height="1948"/></clipPath><clipPath id="clip27"><rect x="1225" y="263" width="1949" height="1948"/></clipPath><clipPath id="clip28"><rect x="1225" y="263" width="1949" height="1948"/></clipPath><clipPath id="clip29"><rect x="1225" y="263" width="1949" height="1948"/></clipPath><clipPath id="clip30"><rect x="1225" y="263" width="1949" height="1948"/></clipPath><clipPath id="clip31"><rect x="1225" y="263" width="1949" height="1948"/></clipPath><clipPath id="clip32"><rect x="1225" y="263" width="1949" height="1948"/></clipPath><clipPath id="clip33"><rect x="1225" y="263" width="1949" height="1948"/></clipPath><clipPath id="clip34"><rect x="1225" y="263" width="1949" height="1948"/></clipPath><clipPath id="clip35"><rect x="1225" y="263" width="1949" height="1948"/></clipPath><clipPath id="clip36"><rect x="1225" y="263" width="1949" height="1948"/></clipPath><clipPath id="clip37"><rect x="1225" y="263" width="1949" height="1948"/></clipPath><clipPath id="clip38"><rect x="1225" y="263" width="1949" height="1948"/></clipPath><clipPath id="clip39"><rect x="1225" y="263" width="1949" height="1948"/></clipPath><clipPath id="clip40"><rect x="1225" y="263" width="1949" height="1948"/></clipPath><clipPath id="clip41"><rect x="1225" y="263" width="1949" height="1948"/></clipPath><clipPath id="clip42"><rect x="1225" y="263" width="1949" height="1948"/></clipPath><clipPath id="clip43"><rect x="1225" y="263" width="1949" height="1948"/></clipPath><clipPath id="clip44"><rect x="1225" y="263" width="1949" height="1948"/></clipPath><clipPath id="clip45"><rect x="1225" y="263" width="1949" height="1948"/></clipPath><clipPath id="clip46"><rect x="1225" y="263" width="1949" height="1948"/></clipPath><clipPath id="clip47"><rect x="1225" y="263" width="1949" height="1948"/></clipPath><clipPath id="clip48"><rect x="1225" y="263" width="1949" height="1948"/></clipPath><clipPath id="clip49"><rect x="1225" y="263" width="1949" height="1948"/></clipPath><clipPath id="clip50"><rect x="1225" y="263" width="1949" height="1948"/></clipPath><clipPath id="clip51"><rect x="1225" y="263" width="1949" height="1948"/></clipPath><clipPath id="clip52"><rect x="1225" y="263" width="1949" height="1948"/></clipPath><clipPath id="clip53"><rect x="1225" y="263" width="1949" height="1948"/></clipPath></defs><g clip-path="url(#clip0)" transform="translate(-1226 -263)"><g clip-path="url(#clip1)"><path d="M1432.5 1787.56 3103.5 1787.56M1432.5 1671.56 3103.5 1671.56M1432.5 1555.55 3103.5 1555.55M1432.5 1439.55 3103.5 1439.55M1432.5 1323.54 3103.5 1323.54M1432.5 1207.54 3103.5 1207.54M1432.5 1091.54 3103.5 1091.54M1432.5 975.532 3103.5 975.532M1432.5 859.528 3103.5 859.528M1432.5 743.525 3103.5 743.525M1432.5 627.521 3103.5 627.521M1432.5 511.5 3103.5 511.5" stroke="#D9D9D9" stroke-width="3.4375" stroke-linejoin="round" stroke-miterlimit="10" fill="none"/></g><g clip-path="url(#clip2)"><path d="M1536.55 511.5 1536.55 1903.5M1641.55 511.5 1641.55 1903.5M1745.56 511.5 1745.56 1903.5M1850.56 511.5 1850.56 1903.5M1954.56 511.5 1954.56 1903.5M2058.57 511.5 2058.57 1903.5M2163.57 511.5 2163.57 1903.5M2267.57 511.5 2267.57 1903.5M2372.58 511.5 2372.58 1903.5M2476.58 511.5 2476.58 1903.5M2580.58 511.5 2580.58 1903.5M2685.59 511.5 2685.59 1903.5M2789.59 511.5 2789.59 1903.5M2894.6 511.5 2894.6 1903.5M2998.6 511.5 2998.6 1903.5M3103.5 511.5 3103.5 1903.5" stroke="#D9D9D9" stroke-width="3.4375" stroke-linejoin="round" stroke-miterlimit="10" fill="none"/></g><g clip-path="url(#clip3)"><path d="M0 0 0.000360892 1392" stroke="#BFBFBF" stroke-width="3.4375" stroke-linejoin="round" stroke-miterlimit="10" fill="none" fill-rule="evenodd" transform="matrix(1 0 0 -1 1432.5 1903.5)"/></g><g clip-path="url(#clip4)"><path d="M1432.5 1903.5 3103.5 1903.5" stroke="#BFBFBF" stroke-width="3.4375" stroke-linejoin="round" stroke-miterlimit="10" fill="none" fill-rule="evenodd"/></g><g clip-path="url(#clip5)"><path d="M1484.5 1903.5 1536.55 1787.56 1641.55 1555.55 1850.56 1091.54 2058.57 627.521 2267.57 163.505 2685.59-764.525 3103.5-1692.5" stroke="#4472C4" stroke-width="6.875" stroke-linecap="round" stroke-linejoin="round" stroke-miterlimit="10" fill="none"/></g><g clip-path="url(#clip6)"><path d="M1495.09 1903.59C1495.09 1909.67 1490.17 1914.59 1484.09 1914.59 1478.02 1914.59 1473.09 1909.67 1473.09 1903.59 1473.09 1897.52 1478.02 1892.59 1484.09 1892.59 1490.17 1892.59 1495.09 1897.52 1495.09 1903.59Z" stroke="#4472C4" stroke-width="3.4375" stroke-linejoin="round" stroke-miterlimit="10" fill="#4472C4"/><path d="M1548.09 1787.59C1548.09 1793.67 1543.17 1798.59 1537.09 1798.59 1531.02 1798.59 1526.09 1793.67 1526.09 1787.59 1526.09 1781.52 1531.02 1776.59 1537.09 1776.59 1543.17 1776.59 1548.09 1781.52 1548.09 1787.59Z" stroke="#4472C4" stroke-width="3.4375" stroke-linejoin="round" stroke-miterlimit="10" fill="#4472C4"/><path d="M1652.09 1555.59C1652.09 1561.67 1647.16 1566.59 1641.09 1566.59 1635.02 1566.59 1630.09 1561.67 1630.09 1555.59 1630.09 1549.52 1635.02 1544.59 1641.09 1544.59 1647.16 1544.59 1652.09 1549.52 1652.09 1555.59Z" stroke="#4472C4" stroke-width="3.4375" stroke-linejoin="round" stroke-miterlimit="10" fill="#4472C4"/><path d="M1861.09 1091.59C1861.09 1097.67 1856.16 1102.59 1850.09 1102.59 1844.02 1102.59 1839.09 1097.67 1839.09 1091.59 1839.09 1085.52 1844.02 1080.59 1850.09 1080.59 1856.16 1080.59 1861.09 1085.52 1861.09 1091.59Z" stroke="#4472C4" stroke-width="3.4375" stroke-linejoin="round" stroke-miterlimit="10" fill="#4472C4"/><path d="M2070.09 627.59C2070.09 633.665 2065.16 638.59 2059.09 638.59 2053.01 638.59 2048.09 633.665 2048.09 627.59 2048.09 621.516 2053.01 616.591 2059.09 616.591 2065.16 616.591 2070.09 621.516 2070.09 627.59Z" stroke="#4472C4" stroke-width="3.4375" stroke-linejoin="round" stroke-miterlimit="10" fill="#4472C4"/></g><g clip-path="url(#clip7)"><path d="M1484.5 1903.5 1536.55 1793.56 1641.55 1578.55 1850.56 1202.54 2058.57 878.529 2267.57 637.521 2685.59 613.52 3103.5 572.5" stroke="#A5A5A5" stroke-width="6.875" stroke-linecap="round" stroke-linejoin="round" stroke-miterlimit="10" fill="none"/></g><g clip-path="url(#clip8)"><path d="M1495.09 1903.59C1495.09 1909.67 1490.17 1914.59 1484.09 1914.59 1478.02 1914.59 1473.09 1909.67 1473.09 1903.59 1473.09 1897.52 1478.02 1892.59 1484.09 1892.59 1490.17 1892.59 1495.09 1897.52 1495.09 1903.59Z" stroke="#A5A5A5" stroke-width="3.4375" stroke-linejoin="round" stroke-miterlimit="10" fill="#A5A5A5"/><path d="M1548.09 1793.59C1548.09 1799.67 1543.17 1804.59 1537.09 1804.59 1531.02 1804.59 1526.09 1799.67 1526.09 1793.59 1526.09 1787.52 1531.02 1782.59 1537.09 1782.59 1543.17 1782.59 1548.09 1787.52 1548.09 1793.59Z" stroke="#A5A5A5" stroke-width="3.4375" stroke-linejoin="round" stroke-miterlimit="10" fill="#A5A5A5"/><path d="M1652.09 1578.59C1652.09 1584.67 1647.16 1589.59 1641.09 1589.59 1635.02 1589.59 1630.09 1584.67 1630.09 1578.59 1630.09 1572.52 1635.02 1567.59 1641.09 1567.59 1647.16 1567.59 1652.09 1572.52 1652.09 1578.59Z" stroke="#A5A5A5" stroke-width="3.4375" stroke-linejoin="round" stroke-miterlimit="10" fill="#A5A5A5"/><path d="M1861.09 1202.59C1861.09 1208.67 1856.16 1213.59 1850.09 1213.59 1844.02 1213.59 1839.09 1208.67 1839.09 1202.59 1839.09 1196.52 1844.02 1191.59 1850.09 1191.59 1856.16 1191.59 1861.09 1196.52 1861.09 1202.59Z" stroke="#A5A5A5" stroke-width="3.4375" stroke-linejoin="round" stroke-miterlimit="10" fill="#A5A5A5"/><path d="M2070.09 878.59C2070.09 884.665 2065.16 889.59 2059.09 889.59 2053.01 889.59 2048.09 884.665 2048.09 878.59 2048.09 872.515 2053.01 867.591 2059.09 867.591 2065.16 867.591 2070.09 872.515 2070.09 878.59Z" stroke="#A5A5A5" stroke-width="3.4375" stroke-linejoin="round" stroke-miterlimit="10" fill="#A5A5A5"/><path d="M2278.09 637.59C2278.09 643.665 2273.16 648.59 2267.09 648.59 2261.01 648.59 2256.09 643.665 2256.09 637.59 2256.09 631.516 2261.01 626.591 2267.09 626.591 2273.16 626.591 2278.09 631.516 2278.09 637.59Z" stroke="#A5A5A5" stroke-width="3.4375" stroke-linejoin="round" stroke-miterlimit="10" fill="#A5A5A5"/><path d="M2696.09 613.59C2696.09 619.665 2691.16 624.59 2685.09 624.59 2679.01 624.59 2674.09 619.665 2674.09 613.59 2674.09 607.515 2679.01 602.591 2685.09 602.591 2691.16 602.591 2696.09 607.515 2696.09 613.59Z" stroke="#A5A5A5" stroke-width="3.4375" stroke-linejoin="round" stroke-miterlimit="10" fill="#A5A5A5"/><path d="M3114.09 572.59C3114.09 578.665 3109.16 583.59 3103.09 583.59 3097.01 583.59 3092.09 578.665 3092.09 572.59 3092.09 566.516 3097.01 561.591 3103.09 561.591 3109.16 561.591 3114.09 566.516 3114.09 572.59Z" stroke="#A5A5A5" stroke-width="3.4375" stroke-linejoin="round" stroke-miterlimit="10" fill="#A5A5A5"/></g><g clip-path="url(#clip9)"><path d="M1484.5 1903.5 1536.55 1792.56 1641.55 1585.55 1850.56 1197.54 2058.57 877.529 2267.57 660.522 2685.59 590.52 3103.5 571.5" stroke="#ED7D31" stroke-width="6.875" stroke-linecap="round" stroke-linejoin="round" stroke-miterlimit="10" fill="none"/></g><g clip-path="url(#clip10)"><path d="M1495.09 1903.59C1495.09 1909.67 1490.17 1914.59 1484.09 1914.59 1478.02 1914.59 1473.09 1909.67 1473.09 1903.59 1473.09 1897.52 1478.02 1892.59 1484.09 1892.59 1490.17 1892.59 1495.09 1897.52 1495.09 1903.59Z" stroke="#ED7D31" stroke-width="3.4375" stroke-linejoin="round" stroke-miterlimit="10" fill="#ED7D31"/><path d="M1548.09 1792.59C1548.09 1798.67 1543.17 1803.59 1537.09 1803.59 1531.02 1803.59 1526.09 1798.67 1526.09 1792.59 1526.09 1786.52 1531.02 1781.59 1537.09 1781.59 1543.17 1781.59 1548.09 1786.52 1548.09 1792.59Z" stroke="#ED7D31" stroke-width="3.4375" stroke-linejoin="round" stroke-miterlimit="10" fill="#ED7D31"/><path d="M1652.09 1585.59C1652.09 1591.67 1647.16 1596.59 1641.09 1596.59 1635.02 1596.59 1630.09 1591.67 1630.09 1585.59 1630.09 1579.52 1635.02 1574.59 1641.09 1574.59 1647.16 1574.59 1652.09 1579.52 1652.09 1585.59Z" stroke="#ED7D31" stroke-width="3.4375" stroke-linejoin="round" stroke-miterlimit="10" fill="#ED7D31"/><path d="M1861.09 1197.59C1861.09 1203.67 1856.16 1208.59 1850.09 1208.59 1844.02 1208.59 1839.09 1203.67 1839.09 1197.59 1839.09 1191.52 1844.02 1186.59 1850.09 1186.59 1856.16 1186.59 1861.09 1191.52 1861.09 1197.59Z" stroke="#ED7D31" stroke-width="3.4375" stroke-linejoin="round" stroke-miterlimit="10" fill="#ED7D31"/><path d="M2070.09 877.59C2070.09 883.665 2065.16 888.59 2059.09 888.59 2053.01 888.59 2048.09 883.665 2048.09 877.59 2048.09 871.515 2053.01 866.591 2059.09 866.591 2065.16 866.591 2070.09 871.515 2070.09 877.59Z" stroke="#ED7D31" stroke-width="3.4375" stroke-linejoin="round" stroke-miterlimit="10" fill="#ED7D31"/><path d="M2278.09 660.59C2278.09 666.665 2273.16 671.59 2267.09 671.59 2261.01 671.59 2256.09 666.665 2256.09 660.59 2256.09 654.516 2261.01 649.591 2267.09 649.591 2273.16 649.591 2278.09 654.516 2278.09 660.59Z" stroke="#ED7D31" stroke-width="3.4375" stroke-linejoin="round" stroke-miterlimit="10" fill="#ED7D31"/><path d="M2696.09 590.59C2696.09 596.665 2691.16 601.59 2685.09 601.59 2679.01 601.59 2674.09 596.665 2674.09 590.59 2674.09 584.515 2679.01 579.591 2685.09 579.591 2691.16 579.591 2696.09 584.515 2696.09 590.59Z" stroke="#ED7D31" stroke-width="3.4375" stroke-linejoin="round" stroke-miterlimit="10" fill="#ED7D31"/><path d="M3114.09 571.59C3114.09 577.665 3109.16 582.59 3103.09 582.59 3097.01 582.59 3092.09 577.665 3092.09 571.59 3092.09 565.516 3097.01 560.591 3103.09 560.591 3109.16 560.591 3114.09 565.516 3114.09 571.59Z" stroke="#ED7D31" stroke-width="3.4375" stroke-linejoin="round" stroke-miterlimit="10" fill="#ED7D31"/></g><g clip-path="url(#clip11)"><text fill="#595959" font-family="Calibri,Calibri_MSFontService,sans-serif" font-weight="400" font-size="41" transform="matrix(1 0 0 1 1373.47 1915)">1</text></g><g clip-path="url(#clip12)"><text fill="#595959" font-family="Calibri,Calibri_MSFontService,sans-serif" font-weight="400" font-size="41" transform="matrix(1 0 0 1 1373.47 1799)">2</text></g><g clip-path="url(#clip13)"><text fill="#595959" font-family="Calibri,Calibri_MSFontService,sans-serif" font-weight="400" font-size="41" transform="matrix(1 0 0 1 1373.47 1683)">3</text></g><g clip-path="url(#clip14)"><text fill="#595959" font-family="Calibri,Calibri_MSFontService,sans-serif" font-weight="400" font-size="41" transform="matrix(1 0 0 1 1373.47 1567)">4</text></g><g clip-path="url(#clip15)"><text fill="#595959" font-family="Calibri,Calibri_MSFontService,sans-serif" font-weight="400" font-size="41" transform="matrix(1 0 0 1 1373.47 1451)">5</text></g><g clip-path="url(#clip16)"><text fill="#595959" font-family="Calibri,Calibri_MSFontService,sans-serif" font-weight="400" font-size="41" transform="matrix(1 0 0 1 1373.47 1335)">6</text></g><g clip-path="url(#clip17)"><text fill="#595959" font-family="Calibri,Calibri_MSFontService,sans-serif" font-weight="400" font-size="41" transform="matrix(1 0 0 1 1373.47 1219)">7</text></g><g clip-path="url(#clip18)"><text fill="#595959" font-family="Calibri,Calibri_MSFontService,sans-serif" font-weight="400" font-size="41" transform="matrix(1 0 0 1 1373.47 1103)">8</text></g><g clip-path="url(#clip19)"><text fill="#595959" font-family="Calibri,Calibri_MSFontService,sans-serif" font-weight="400" font-size="41" transform="matrix(1 0 0 1 1373.47 987)">9</text></g><g clip-path="url(#clip20)"><text fill="#595959" font-family="Calibri,Calibri_MSFontService,sans-serif" font-weight="400" font-size="41" transform="matrix(1 0 0 1 1352.57 871)">10</text></g><g clip-path="url(#clip21)"><text fill="#595959" font-family="Calibri,Calibri_MSFontService,sans-serif" font-weight="400" font-size="41" transform="matrix(1 0 0 1 1352.57 755)">11</text></g><g clip-path="url(#clip22)"><text fill="#595959" font-family="Calibri,Calibri_MSFontService,sans-serif" font-weight="400" font-size="41" transform="matrix(1 0 0 1 1352.57 639)">12</text></g><g clip-path="url(#clip23)"><text fill="#595959" font-family="Calibri,Calibri_MSFontService,sans-serif" font-weight="400" font-size="41" transform="matrix(1 0 0 1 1352.57 523)">13</text></g><g clip-path="url(#clip24)"><text fill="#595959" font-family="Calibri,Calibri_MSFontService,sans-serif" font-weight="400" font-size="41" transform="matrix(1 0 0 1 1422.19 1969)">0</text></g><g clip-path="url(#clip25)"><text fill="#595959" font-family="Calibri,Calibri_MSFontService,sans-serif" font-weight="400" font-size="41" transform="matrix(1 0 0 1 1526.59 1969)">2</text></g><g clip-path="url(#clip26)"><text fill="#595959" font-family="Calibri,Calibri_MSFontService,sans-serif" font-weight="400" font-size="41" transform="matrix(1 0 0 1 1631 1969)">4</text></g><g clip-path="url(#clip27)"><text fill="#595959" font-family="Calibri,Calibri_MSFontService,sans-serif" font-weight="400" font-size="41" transform="matrix(1 0 0 1 1735.4 1969)">6</text></g><g clip-path="url(#clip28)"><text fill="#595959" font-family="Calibri,Calibri_MSFontService,sans-serif" font-weight="400" font-size="41" transform="matrix(1 0 0 1 1839.8 1969)">8</text></g><g clip-path="url(#clip29)"><text fill="#595959" font-family="Calibri,Calibri_MSFontService,sans-serif" font-weight="400" font-size="41" transform="matrix(1 0 0 1 1933.76 1969)">10</text></g><g clip-path="url(#clip30)"><text fill="#595959" font-family="Calibri,Calibri_MSFontService,sans-serif" font-weight="400" font-size="41" transform="matrix(1 0 0 1 2038.16 1969)">12</text></g><g clip-path="url(#clip31)"><text fill="#595959" font-family="Calibri,Calibri_MSFontService,sans-serif" font-weight="400" font-size="41" transform="matrix(1 0 0 1 2142.56 1969)">14</text></g><g clip-path="url(#clip32)"><text fill="#595959" font-family="Calibri,Calibri_MSFontService,sans-serif" font-weight="400" font-size="41" transform="matrix(1 0 0 1 2246.97 1969)">16</text></g><g clip-path="url(#clip33)"><text fill="#595959" font-family="Calibri,Calibri_MSFontService,sans-serif" font-weight="400" font-size="41" transform="matrix(1 0 0 1 2351.37 1969)">18</text></g><g clip-path="url(#clip34)"><text fill="#595959" font-family="Calibri,Calibri_MSFontService,sans-serif" font-weight="400" font-size="41" transform="matrix(1 0 0 1 2455.77 1969)">20</text></g><g clip-path="url(#clip35)"><text fill="#595959" font-family="Calibri,Calibri_MSFontService,sans-serif" font-weight="400" font-size="41" transform="matrix(1 0 0 1 2560.18 1969)">22</text></g><g clip-path="url(#clip36)"><text fill="#595959" font-family="Calibri,Calibri_MSFontService,sans-serif" font-weight="400" font-size="41" transform="matrix(1 0 0 1 2664.58 1969)">24</text></g><g clip-path="url(#clip37)"><text fill="#595959" font-family="Calibri,Calibri_MSFontService,sans-serif" font-weight="400" font-size="41" transform="matrix(1 0 0 1 2768.98 1969)">26</text></g><g clip-path="url(#clip38)"><text fill="#595959" font-family="Calibri,Calibri_MSFontService,sans-serif" font-weight="400" font-size="41" transform="matrix(1 0 0 1 2873.39 1969)">28</text></g><g clip-path="url(#clip39)"><text fill="#595959" font-family="Calibri,Calibri_MSFontService,sans-serif" font-weight="400" font-size="41" transform="matrix(1 0 0 1 2977.79 1969)">30</text></g><g clip-path="url(#clip40)"><text fill="#595959" font-family="Calibri,Calibri_MSFontService,sans-serif" font-weight="400" font-size="41" transform="matrix(1 0 0 1 3082.19 1969)">32</text></g><g clip-path="url(#clip41)"><text fill="#595959" font-family="Calibri,Calibri_MSFontService,sans-serif" font-weight="400" font-size="46" transform="matrix(6.12323e-17 -1 1 6.12323e-17 1326.88 1218)">S</text></g><g clip-path="url(#clip42)"><text fill="#595959" font-family="Calibri,Calibri_MSFontService,sans-serif" font-weight="400" font-size="46" transform="matrix(1 0 0 1 2255.82 2038)">p</text></g><g clip-path="url(#clip43)"><text fill="#595959" font-family="Calibri,Calibri_MSFontService,sans-serif" font-weight="400" font-size="64" transform="matrix(1 0 0 1 1459.97 358)">Сравнение на ускорението при статично и динамично </text></g><g clip-path="url(#clip44)"><text fill="#595959" font-family="Calibri,Calibri_MSFontService,sans-serif" font-weight="400" font-size="64" transform="matrix(1 0 0 1 2022.42 436)">балансиране</text></g><g clip-path="url(#clip45)"><path d="M1537.5 2145.5 1625.5 2145.5" stroke="#4472C4" stroke-width="6.875" stroke-linecap="round" stroke-linejoin="round" stroke-miterlimit="10" fill="none" fill-rule="evenodd"/></g><g clip-path="url(#clip46)"><path d="M1592 2145.5C1592 2151.31 1587.08 2156.02 1581 2156.02 1574.93 2156.02 1570 2151.31 1570 2145.5 1570 2139.69 1574.93 2134.98 1581 2134.98 1587.08 2134.98 1592 2139.69 1592 2145.5Z" stroke="#4472C4" stroke-width="3.4375" stroke-linejoin="round" stroke-miterlimit="10" fill="#4472C4"/></g><g clip-path="url(#clip47)"><text fill="#595959" font-family="Calibri,Calibri_MSFontService,sans-serif" font-weight="400" font-size="41" transform="matrix(1 0 0 1 1634.79 2157)">HW</text></g><g clip-path="url(#clip48)"><path d="M1771.5 2145.5 1859.5 2145.5" stroke="#A5A5A5" stroke-width="6.875" stroke-linecap="round" stroke-linejoin="round" stroke-miterlimit="10" fill="none" fill-rule="evenodd"/></g><g clip-path="url(#clip49)"><path d="M1826.02 2145.5C1826.02 2151.31 1821.31 2156.02 1815.5 2156.02 1809.69 2156.02 1804.98 2151.31 1804.98 2145.5 1804.98 2139.69 1809.69 2134.98 1815.5 2134.98 1821.31 2134.98 1826.02 2139.69 1826.02 2145.5Z" stroke="#A5A5A5" stroke-width="3.4375" stroke-linejoin="round" stroke-miterlimit="10" fill="#A5A5A5"/></g><g clip-path="url(#clip50)"><text fill="#595959" font-family="Calibri,Calibri_MSFontService,sans-serif" font-weight="400" font-size="41" transform="matrix(1 0 0 1 1868.7 2157)">Динамично балансиране</text></g><g clip-path="url(#clip51)"><path d="M2384.5 2145.5 2472.5 2145.5" stroke="#ED7D31" stroke-width="6.875" stroke-linecap="round" stroke-linejoin="round" stroke-miterlimit="10" fill="none" fill-rule="evenodd"/></g><g clip-path="url(#clip52)"><path d="M2439 2145.5C2439 2151.31 2434.07 2156.02 2428 2156.02 2421.93 2156.02 2417 2151.31 2417 2145.5 2417 2139.69 2421.93 2134.98 2428 2134.98 2434.07 2134.98 2439 2139.69 2439 2145.5Z" stroke="#ED7D31" stroke-width="3.4375" stroke-linejoin="round" stroke-miterlimit="10" fill="#ED7D31"/></g><g clip-path="url(#clip53)"><text fill="#595959" font-family="Calibri,Calibri_MSFontService,sans-serif" font-weight="400" font-size="41" transform="matrix(1 0 0 1 2481.87 2157)">Статично балансиране</text></g></g></svg>