<svg width="1948" height="1949" xmlns="http://www.w3.org/2000/svg" xmlns:xlink="http://www.w3.org/1999/xlink" xml:space="preserve" overflow="hidden"><defs><clipPath id="clip0"><rect x="1226" y="263" width="1948" height="1949"/></clipPath><clipPath id="clip1"><rect x="1225" y="263" width="1949" height="1948"/></clipPath><clipPath id="clip2"><rect x="1225" y="263" width="1949" height="1948"/></clipPath><clipPath id="clip3"><rect x="1225" y="263" width="1949" height="1948"/></clipPath><clipPath id="clip4"><rect x="1225" y="263" width="1949" height="1948"/></clipPath><clipPath id="clip5"><rect x="1432" y="511" width="1674" height="1395"/></clipPath><clipPath id="clip6"><rect x="1225" y="263" width="1949" height="1948"/></clipPath><clipPath id="clip7"><rect x="1432" y="511" width="1674" height="1395"/></clipPath><clipPath id="clip8"><rect x="1225" y="263" width="1949" height="1948"/></clipPath><clipPath id="clip9"><rect x="1432" y="511" width="1674" height="1395"/></clipPath><clipPath id="clip10"><rect x="1225" y="263" width="1949" height="1948"/></clipPath><clipPath id="clip11"><rect x="1432" y="511" width="1674" height="1395"/></clipPath><clipPath id="clip12"><rect x="1225" y="263" width="1949" height="1948"/></clipPath><clipPath id="clip13"><rect x="1225" y="263" width="1949" height="1948"/></clipPath><clipPath id="clip14"><rect x="1225" y="263" width="1949" height="1948"/></clipPath><clipPath id="clip15"><rect x="1225" y="263" width="1949" height="1948"/></clipPath><clipPath id="clip16"><rect x="1225" y="263" width="1949" height="1948"/></clipPath><clipPath id="clip17"><rect x="1225" y="263" width="1949" height="1948"/></clipPath><clipPath id="clip18"><rect x="1225" y="263" width="1949" height="1948"/></clipPath><clipPath id="clip19"><rect x="1225" y="263" width="1949" height="1948"/></clipPath><clipPath id="clip20"><rect x="1225" y="263" width="1949" height="1948"/></clipPath><clipPath id="clip21"><rect x="1225" y="263" width="1949" height="1948"/></clipPath><clipPath id="clip22"><rect x="1225" y="263" width="1949" height="1948"/></clipPath><clipPath id="clip23"><rect x="1225" y="263" width="1949" height="1948"/></clipPath><clipPath id="clip24"><rect x="1225" y="263" width="1949" height="1948"/></clipPath><clipPath id="clip25"><rect x="1225" y="263" width="1949" height="1948"/></clipPath><clipPath id="clip26"><rect x="1225" y="263" width="1949" height="1948"/></clipPath><clipPath id="clip27"><rect x="1225" y="263" width="1949" height="1948"/></clipPath><clipPath id="clip28"><rect x="1225" y="263" width="1949" height="1948"/></clipPath><clipPath id="clip29"><rect x="1225" y="263" width="1949" height="1948"/></clipPath><clipPath id="clip30"><rect x="1225" y="263" width="1949" height="1948"/></clipPath><clipPath id="clip31"><rect x="1225" y="263" width="1949" height="1948"/></clipPath><clipPath id="clip32"><rect x="1225" y="263" width="1949" height="1948"/></clipPath><clipPath id="clip33"><rect x="1225" y="263" width="1949" height="1948"/></clipPath><clipPath id="clip34"><rect x="1225" y="263" width="1949" height="1948"/></clipPath><clipPath id="clip35"><rect x="1225" y="263" width="1949" height="1948"/></clipPath><clipPath id="clip36"><rect x="1225" y="263" width="1949" height="1948"/></clipPath><clipPath id="clip37"><rect x="1225" y="263" width="1949" height="1948"/></clipPath><clipPath id="clip38"><rect x="1225" y="263" width="1949" height="1948"/></clipPath><clipPath id="clip39"><rect x="1225" y="263" width="1949" height="1948"/></clipPath><clipPath id="clip40"><rect x="1225" y="263" width="1949" height="1948"/></clipPath><clipPath id="clip41"><rect x="1225" y="263" width="1949" height="1948"/></clipPath><clipPath id="clip42"><rect x="1225" y="263" width="1949" height="1948"/></clipPath><clipPath id="clip43"><rect x="1225" y="263" width="1949" height="1948"/></clipPath><clipPath id="clip44"><rect x="1225" y="263" width="1949" height="1948"/></clipPath><clipPath id="clip45"><rect x="1225" y="263" width="1949" height="1948"/></clipPath><clipPath id="clip46"><rect x="1225" y="263" width="1949" height="1948"/></clipPath><clipPath id="clip47"><rect x="1225" y="263" width="1949" height="1948"/></clipPath><clipPath id="clip48"><rect x="1225" y="263" width="1949" height="1948"/></clipPath><clipPath id="clip49"><rect x="1225" y="263" width="1949" height="1948"/></clipPath><clipPath id="clip50"><rect x="1225" y="263" width="1949" height="1948"/></clipPath><clipPath id="clip51"><rect x="1225" y="263" width="1949" height="1948"/></clipPath><clipPath id="clip52"><rect x="1225" y="263" width="1949" height="1948"/></clipPath><clipPath id="clip53"><rect x="1225" y="263" width="1949" height="1948"/></clipPath><clipPath id="clip54"><rect x="1225" y="263" width="1949" height="1948"/></clipPath><clipPath id="clip55"><rect x="1225" y="263" width="1949" height="1948"/></clipPath><clipPath id="clip56"><rect x="1225" y="263" width="1949" height="1948"/></clipPath><clipPath id="clip57"><rect x="1225" y="263" width="1949" height="1948"/></clipPath><clipPath id="clip58"><rect x="1225" y="263" width="1949" height="1948"/></clipPath><clipPath id="clip59"><rect x="1225" y="263" width="1949" height="1948"/></clipPath><clipPath id="clip60"><rect x="1225" y="263" width="1949" height="1948"/></clipPath><clipPath id="clip61"><rect x="1225" y="263" width="1949" height="1948"/></clipPath><clipPath id="clip62"><rect x="1225" y="263" width="1949" height="1948"/></clipPath></defs><g clip-path="url(#clip0)" transform="translate(-1226 -263)"><g clip-path="url(#clip1)"><path d="M1432.5 1816.56 3103.5 1816.56M1432.5 1729.56 3103.5 1729.56M1432.5 1642.55 3103.5 1642.55M1432.5 1555.55 3103.5 1555.55M1432.5 1468.55 3103.5 1468.55M1432.5 1381.55 3103.5 1381.55M1432.5 1294.54 3103.5 1294.54M1432.5 1207.54 3103.5 1207.54M1432.5 1120.54 3103.5 1120.54M1432.5 1033.53 3103.5 1033.53M1432.5 946.531 3103.5 946.531M1432.5 859.528 3103.5 859.528M1432.5 772.526 3103.5 772.526M1432.5 685.523 3103.5 685.523M1432.5 598.52 3103.5 598.52M1432.5 511.5 3103.5 511.5" stroke="#D9D9D9" stroke-width="3.4375" stroke-linejoin="round" stroke-miterlimit="10" fill="none"/></g><g clip-path="url(#clip2)"><path d="M1536.55 511.5 1536.55 1903.5M1641.55 511.5 1641.55 1903.5M1745.56 511.5 1745.56 1903.5M1850.56 511.5 1850.56 1903.5M1954.56 511.5 1954.56 1903.5M2058.57 511.5 2058.57 1903.5M2163.57 511.5 2163.57 1903.5M2267.57 511.5 2267.57 1903.5M2372.58 511.5 2372.58 1903.5M2476.58 511.5 2476.58 1903.5M2580.58 511.5 2580.58 1903.5M2685.59 511.5 2685.59 1903.5M2789.59 511.5 2789.59 1903.5M2894.6 511.5 2894.6 1903.5M2998.6 511.5 2998.6 1903.5M3103.5 511.5 3103.5 1903.5" stroke="#D9D9D9" stroke-width="3.4375" stroke-linejoin="round" stroke-miterlimit="10" fill="none"/></g><g clip-path="url(#clip3)"><path d="M0 0 0.000360892 1392" stroke="#BFBFBF" stroke-width="3.4375" stroke-linejoin="round" stroke-miterlimit="10" fill="none" fill-rule="evenodd" transform="matrix(1 0 0 -1 1432.5 1903.5)"/></g><g clip-path="url(#clip4)"><path d="M1432.5 1903.5 3103.5 1903.5" stroke="#BFBFBF" stroke-width="3.4375" stroke-linejoin="round" stroke-miterlimit="10" fill="none" fill-rule="evenodd"/></g><g clip-path="url(#clip5)"><path d="M1484.5 1860.5 1536.55 1819.56 1641.55 1807.56 1850.56 1752.56 2058.57 1688.56 2267.57 1628.55 2685.59 1522.55 3103.5 1486.5" stroke="#4472C4" stroke-width="6.875" stroke-linecap="round" stroke-linejoin="round" stroke-miterlimit="10" fill="none"/></g><g clip-path="url(#clip6)"><path d="M1495.09 1860.59C1495.09 1866.67 1490.17 1871.59 1484.09 1871.59 1478.02 1871.59 1473.09 1866.67 1473.09 1860.59 1473.09 1854.52 1478.02 1849.59 1484.09 1849.59 1490.17 1849.59 1495.09 1854.52 1495.09 1860.59Z" stroke="#4472C4" stroke-width="3.4375" stroke-linejoin="round" stroke-miterlimit="10" fill="#4472C4"/><path d="M1548.09 1819.59C1548.09 1825.67 1543.17 1830.59 1537.09 1830.59 1531.02 1830.59 1526.09 1825.67 1526.09 1819.59 1526.09 1813.52 1531.02 1808.59 1537.09 1808.59 1543.17 1808.59 1548.09 1813.52 1548.09 1819.59Z" stroke="#4472C4" stroke-width="3.4375" stroke-linejoin="round" stroke-miterlimit="10" fill="#4472C4"/><path d="M1652.09 1807.59C1652.09 1813.67 1647.16 1818.59 1641.09 1818.59 1635.02 1818.59 1630.09 1813.67 1630.09 1807.59 1630.09 1801.52 1635.02 1796.59 1641.09 1796.59 1647.16 1796.59 1652.09 1801.52 1652.09 1807.59Z" stroke="#4472C4" stroke-width="3.4375" stroke-linejoin="round" stroke-miterlimit="10" fill="#4472C4"/><path d="M1861.09 1752.59C1861.09 1758.67 1856.16 1763.59 1850.09 1763.59 1844.02 1763.59 1839.09 1758.67 1839.09 1752.59 1839.09 1746.52 1844.02 1741.59 1850.09 1741.59 1856.16 1741.59 1861.09 1746.52 1861.09 1752.59Z" stroke="#4472C4" stroke-width="3.4375" stroke-linejoin="round" stroke-miterlimit="10" fill="#4472C4"/><path d="M2070.09 1688.59C2070.09 1694.67 2065.16 1699.59 2059.09 1699.59 2053.01 1699.59 2048.09 1694.67 2048.09 1688.59 2048.09 1682.52 2053.01 1677.59 2059.09 1677.59 2065.16 1677.59 2070.09 1682.52 2070.09 1688.59Z" stroke="#4472C4" stroke-width="3.4375" stroke-linejoin="round" stroke-miterlimit="10" fill="#4472C4"/><path d="M2278.09 1628.59C2278.09 1634.67 2273.16 1639.59 2267.09 1639.59 2261.01 1639.59 2256.09 1634.67 2256.09 1628.59 2256.09 1622.52 2261.01 1617.59 2267.09 1617.59 2273.16 1617.59 2278.09 1622.52 2278.09 1628.59Z" stroke="#4472C4" stroke-width="3.4375" stroke-linejoin="round" stroke-miterlimit="10" fill="#4472C4"/><path d="M2696.09 1522.59C2696.09 1528.67 2691.16 1533.59 2685.09 1533.59 2679.01 1533.59 2674.09 1528.67 2674.09 1522.59 2674.09 1516.52 2679.01 1511.59 2685.09 1511.59 2691.16 1511.59 2696.09 1516.52 2696.09 1522.59Z" stroke="#4472C4" stroke-width="3.4375" stroke-linejoin="round" stroke-miterlimit="10" fill="#4472C4"/><path d="M3114.09 1486.59C3114.09 1492.67 3109.16 1497.59 3103.09 1497.59 3097.01 1497.59 3092.09 1492.67 3092.09 1486.59 3092.09 1480.52 3097.01 1475.59 3103.09 1475.59 3109.16 1475.59 3114.09 1480.52 3114.09 1486.59Z" stroke="#4472C4" stroke-width="3.4375" stroke-linejoin="round" stroke-miterlimit="10" fill="#4472C4"/></g><g clip-path="url(#clip7)"><path d="M1484.5 1860.5 1536.55 1818.56 1641.55 1746.56 1850.56 1623.55 2058.57 1511.55 2267.57 1420.55 2685.59 1390.55 3103.5 1382.5" stroke="#ED7D31" stroke-width="6.875" stroke-linecap="round" stroke-linejoin="round" stroke-miterlimit="10" fill="none"/></g><g clip-path="url(#clip8)"><path d="M1495.09 1860.59C1495.09 1866.67 1490.17 1871.59 1484.09 1871.59 1478.02 1871.59 1473.09 1866.67 1473.09 1860.59 1473.09 1854.52 1478.02 1849.59 1484.09 1849.59 1490.17 1849.59 1495.09 1854.52 1495.09 1860.59Z" stroke="#ED7D31" stroke-width="3.4375" stroke-linejoin="round" stroke-miterlimit="10" fill="#ED7D31"/><path d="M1548.09 1818.59C1548.09 1824.67 1543.17 1829.59 1537.09 1829.59 1531.02 1829.59 1526.09 1824.67 1526.09 1818.59 1526.09 1812.52 1531.02 1807.59 1537.09 1807.59 1543.17 1807.59 1548.09 1812.52 1548.09 1818.59Z" stroke="#ED7D31" stroke-width="3.4375" stroke-linejoin="round" stroke-miterlimit="10" fill="#ED7D31"/><path d="M1652.09 1746.59C1652.09 1752.67 1647.16 1757.59 1641.09 1757.59 1635.02 1757.59 1630.09 1752.67 1630.09 1746.59 1630.09 1740.52 1635.02 1735.59 1641.09 1735.59 1647.16 1735.59 1652.09 1740.52 1652.09 1746.59Z" stroke="#ED7D31" stroke-width="3.4375" stroke-linejoin="round" stroke-miterlimit="10" fill="#ED7D31"/><path d="M1861.09 1623.59C1861.09 1629.67 1856.16 1634.59 1850.09 1634.59 1844.02 1634.59 1839.09 1629.67 1839.09 1623.59 1839.09 1617.52 1844.02 1612.59 1850.09 1612.59 1856.16 1612.59 1861.09 1617.52 1861.09 1623.59Z" stroke="#ED7D31" stroke-width="3.4375" stroke-linejoin="round" stroke-miterlimit="10" fill="#ED7D31"/><path d="M2070.09 1511.59C2070.09 1517.67 2065.16 1522.59 2059.09 1522.59 2053.01 1522.59 2048.09 1517.67 2048.09 1511.59 2048.09 1505.52 2053.01 1500.59 2059.09 1500.59 2065.16 1500.59 2070.09 1505.52 2070.09 1511.59Z" stroke="#ED7D31" stroke-width="3.4375" stroke-linejoin="round" stroke-miterlimit="10" fill="#ED7D31"/><path d="M2278.09 1420.59C2278.09 1426.67 2273.16 1431.59 2267.09 1431.59 2261.01 1431.59 2256.09 1426.67 2256.09 1420.59 2256.09 1414.52 2261.01 1409.59 2267.09 1409.59 2273.16 1409.59 2278.09 1414.52 2278.09 1420.59Z" stroke="#ED7D31" stroke-width="3.4375" stroke-linejoin="round" stroke-miterlimit="10" fill="#ED7D31"/><path d="M2696.09 1390.59C2696.09 1396.67 2691.16 1401.59 2685.09 1401.59 2679.01 1401.59 2674.09 1396.67 2674.09 1390.59 2674.09 1384.52 2679.01 1379.59 2685.09 1379.59 2691.16 1379.59 2696.09 1384.52 2696.09 1390.59Z" stroke="#ED7D31" stroke-width="3.4375" stroke-linejoin="round" stroke-miterlimit="10" fill="#ED7D31"/><path d="M3114.09 1382.59C3114.09 1388.67 3109.16 1393.59 3103.09 1393.59 3097.01 1393.59 3092.09 1388.67 3092.09 1382.59 3092.09 1376.52 3097.01 1371.59 3103.09 1371.59 3109.16 1371.59 3114.09 1376.52 3114.09 1382.59Z" stroke="#ED7D31" stroke-width="3.4375" stroke-linejoin="round" stroke-miterlimit="10" fill="#ED7D31"/></g><g clip-path="url(#clip9)"><path d="M1484.5 1859.5 1536.55 1818.56 1641.55 1738.56 1850.56 1597.55 2058.57 1475.55 2267.57 1385.55 2685.59 1376.55 3103.5 1360.5" stroke="#A5A5A5" stroke-width="6.875" stroke-linecap="round" stroke-linejoin="round" stroke-miterlimit="10" fill="none"/></g><g clip-path="url(#clip10)"><path d="M1495.09 1859.59C1495.09 1865.67 1490.17 1870.59 1484.09 1870.59 1478.02 1870.59 1473.09 1865.67 1473.09 1859.59 1473.09 1853.52 1478.02 1848.59 1484.09 1848.59 1490.17 1848.59 1495.09 1853.52 1495.09 1859.59Z" stroke="#A5A5A5" stroke-width="3.4375" stroke-linejoin="round" stroke-miterlimit="10" fill="#A5A5A5"/><path d="M1548.09 1818.59C1548.09 1824.67 1543.17 1829.59 1537.09 1829.59 1531.02 1829.59 1526.09 1824.67 1526.09 1818.59 1526.09 1812.52 1531.02 1807.59 1537.09 1807.59 1543.17 1807.59 1548.09 1812.52 1548.09 1818.59Z" stroke="#A5A5A5" stroke-width="3.4375" stroke-linejoin="round" stroke-miterlimit="10" fill="#A5A5A5"/><path d="M1652.09 1738.59C1652.09 1744.67 1647.16 1749.59 1641.09 1749.59 1635.02 1749.59 1630.09 1744.67 1630.09 1738.59 1630.09 1732.52 1635.02 1727.59 1641.09 1727.59 1647.16 1727.59 1652.09 1732.52 1652.09 1738.59Z" stroke="#A5A5A5" stroke-width="3.4375" stroke-linejoin="round" stroke-miterlimit="10" fill="#A5A5A5"/><path d="M1861.09 1597.59C1861.09 1603.67 1856.16 1608.59 1850.09 1608.59 1844.02 1608.59 1839.09 1603.67 1839.09 1597.59 1839.09 1591.52 1844.02 1586.59 1850.09 1586.59 1856.16 1586.59 1861.09 1591.52 1861.09 1597.59Z" stroke="#A5A5A5" stroke-width="3.4375" stroke-linejoin="round" stroke-miterlimit="10" fill="#A5A5A5"/><path d="M2070.09 1475.59C2070.09 1481.67 2065.16 1486.59 2059.09 1486.59 2053.01 1486.59 2048.09 1481.67 2048.09 1475.59 2048.09 1469.52 2053.01 1464.59 2059.09 1464.59 2065.16 1464.59 2070.09 1469.52 2070.09 1475.59Z" stroke="#A5A5A5" stroke-width="3.4375" stroke-linejoin="round" stroke-miterlimit="10" fill="#A5A5A5"/><path d="M2278.09 1385.59C2278.09 1391.67 2273.16 1396.59 2267.09 1396.59 2261.01 1396.59 2256.09 1391.67 2256.09 1385.59 2256.09 1379.52 2261.01 1374.59 2267.09 1374.59 2273.16 1374.59 2278.09 1379.52 2278.09 1385.59Z" stroke="#A5A5A5" stroke-width="3.4375" stroke-linejoin="round" stroke-miterlimit="10" fill="#A5A5A5"/><path d="M2696.09 1376.59C2696.09 1382.67 2691.16 1387.59 2685.09 1387.59 2679.01 1387.59 2674.09 1382.67 2674.09 1376.59 2674.09 1370.52 2679.01 1365.59 2685.09 1365.59 2691.16 1365.59 2696.09 1370.52 2696.09 1376.59Z" stroke="#A5A5A5" stroke-width="3.4375" stroke-linejoin="round" stroke-miterlimit="10" fill="#A5A5A5"/><path d="M3114.09 1360.59C3114.09 1366.67 3109.16 1371.59 3103.09 1371.59 3097.01 1371.59 3092.09 1366.67 3092.09 1360.59 3092.09 1354.52 3097.01 1349.59 3103.09 1349.59 3109.16 1349.59 3114.09 1354.52 3114.09 1360.59Z" stroke="#A5A5A5" stroke-width="3.4375" stroke-linejoin="round" stroke-miterlimit="10" fill="#A5A5A5"/></g><g clip-path="url(#clip11)"><path d="M1484.5 1860.5 1536.55 1816.56 1641.55 1729.56 1850.56 1555.55 2058.57 1381.55 2267.57 1207.54 2685.59 859.528 3103.5 511.5" stroke="#FFC000" stroke-width="6.875" stroke-linecap="round" stroke-linejoin="round" stroke-miterlimit="10" fill="none"/></g><g clip-path="url(#clip12)"><path d="M1495.09 1860.59C1495.09 1866.67 1490.17 1871.59 1484.09 1871.59 1478.02 1871.59 1473.09 1866.67 1473.09 1860.59 1473.09 1854.52 1478.02 1849.59 1484.09 1849.59 1490.17 1849.59 1495.09 1854.52 1495.09 1860.59Z" stroke="#FFC000" stroke-width="3.4375" stroke-linejoin="round" stroke-miterlimit="10" fill="#FFC000"/><path d="M1548.09 1816.59C1548.09 1822.67 1543.17 1827.59 1537.09 1827.59 1531.02 1827.59 1526.09 1822.67 1526.09 1816.59 1526.09 1810.52 1531.02 1805.59 1537.09 1805.59 1543.17 1805.59 1548.09 1810.52 1548.09 1816.59Z" stroke="#FFC000" stroke-width="3.4375" stroke-linejoin="round" stroke-miterlimit="10" fill="#FFC000"/><path d="M1652.09 1729.59C1652.09 1735.67 1647.16 1740.59 1641.09 1740.59 1635.02 1740.59 1630.09 1735.67 1630.09 1729.59 1630.09 1723.52 1635.02 1718.59 1641.09 1718.59 1647.16 1718.59 1652.09 1723.52 1652.09 1729.59Z" stroke="#FFC000" stroke-width="3.4375" stroke-linejoin="round" stroke-miterlimit="10" fill="#FFC000"/><path d="M1861.09 1555.59C1861.09 1561.67 1856.16 1566.59 1850.09 1566.59 1844.02 1566.59 1839.09 1561.67 1839.09 1555.59 1839.09 1549.52 1844.02 1544.59 1850.09 1544.59 1856.16 1544.59 1861.09 1549.52 1861.09 1555.59Z" stroke="#FFC000" stroke-width="3.4375" stroke-linejoin="round" stroke-miterlimit="10" fill="#FFC000"/><path d="M2070.09 1381.59C2070.09 1387.67 2065.16 1392.59 2059.09 1392.59 2053.01 1392.59 2048.09 1387.67 2048.09 1381.59 2048.09 1375.52 2053.01 1370.59 2059.09 1370.59 2065.16 1370.59 2070.09 1375.52 2070.09 1381.59Z" stroke="#FFC000" stroke-width="3.4375" stroke-linejoin="round" stroke-miterlimit="10" fill="#FFC000"/><path d="M2278.09 1207.59C2278.09 1213.67 2273.16 1218.59 2267.09 1218.59 2261.01 1218.59 2256.09 1213.67 2256.09 1207.59 2256.09 1201.52 2261.01 1196.59 2267.09 1196.59 2273.16 1196.59 2278.09 1201.52 2278.09 1207.59Z" stroke="#FFC000" stroke-width="3.4375" stroke-linejoin="round" stroke-miterlimit="10" fill="#FFC000"/><path d="M2696.09 859.59C2696.09 865.665 2691.16 870.59 2685.09 870.59 2679.01 870.59 2674.09 865.665 2674.09 859.59 2674.09 853.515 2679.01 848.59 2685.09 848.59 2691.16 848.59 2696.09 853.515 2696.09 859.59Z" stroke="#FFC000" stroke-width="3.4375" stroke-linejoin="round" stroke-miterlimit="10" fill="#FFC000"/><path d="M3114.09 511.59C3114.09 517.665 3109.16 522.59 3103.09 522.59 3097.01 522.59 3092.09 517.665 3092.09 511.59 3092.09 505.515 3097.01 500.591 3103.09 500.591 3109.16 500.591 3114.09 505.515 3114.09 511.59Z" stroke="#FFC000" stroke-width="3.4375" stroke-linejoin="round" stroke-miterlimit="10" fill="#FFC000"/></g><g clip-path="url(#clip13)"><text fill="#595959" font-family="Calibri,Calibri_MSFontService,sans-serif" font-weight="400" font-size="41" transform="matrix(1 0 0 1 1373.47 1915)">0</text></g><g clip-path="url(#clip14)"><text fill="#595959" font-family="Calibri,Calibri_MSFontService,sans-serif" font-weight="400" font-size="41" transform="matrix(1 0 0 1 1373.47 1828)">2</text></g><g clip-path="url(#clip15)"><text fill="#595959" font-family="Calibri,Calibri_MSFontService,sans-serif" font-weight="400" font-size="41" transform="matrix(1 0 0 1 1373.47 1741)">4</text></g><g clip-path="url(#clip16)"><text fill="#595959" font-family="Calibri,Calibri_MSFontService,sans-serif" font-weight="400" font-size="41" transform="matrix(1 0 0 1 1373.47 1654)">6</text></g><g clip-path="url(#clip17)"><text fill="#595959" font-family="Calibri,Calibri_MSFontService,sans-serif" font-weight="400" font-size="41" transform="matrix(1 0 0 1 1373.47 1567)">8</text></g><g clip-path="url(#clip18)"><text fill="#595959" font-family="Calibri,Calibri_MSFontService,sans-serif" font-weight="400" font-size="41" transform="matrix(1 0 0 1 1352.57 1480)">10</text></g><g clip-path="url(#clip19)"><text fill="#595959" font-family="Calibri,Calibri_MSFontService,sans-serif" font-weight="400" font-size="41" transform="matrix(1 0 0 1 1352.57 1393)">12</text></g><g clip-path="url(#clip20)"><text fill="#595959" font-family="Calibri,Calibri_MSFontService,sans-serif" font-weight="400" font-size="41" transform="matrix(1 0 0 1 1352.57 1306)">14</text></g><g clip-path="url(#clip21)"><text fill="#595959" font-family="Calibri,Calibri_MSFontService,sans-serif" font-weight="400" font-size="41" transform="matrix(1 0 0 1 1352.57 1219)">16</text></g><g clip-path="url(#clip22)"><text fill="#595959" font-family="Calibri,Calibri_MSFontService,sans-serif" font-weight="400" font-size="41" transform="matrix(1 0 0 1 1352.57 1132)">18</text></g><g clip-path="url(#clip23)"><text fill="#595959" font-family="Calibri,Calibri_MSFontService,sans-serif" font-weight="400" font-size="41" transform="matrix(1 0 0 1 1352.57 1045)">20</text></g><g clip-path="url(#clip24)"><text fill="#595959" font-family="Calibri,Calibri_MSFontService,sans-serif" font-weight="400" font-size="41" transform="matrix(1 0 0 1 1352.57 958)">22</text></g><g clip-path="url(#clip25)"><text fill="#595959" font-family="Calibri,Calibri_MSFontService,sans-serif" font-weight="400" font-size="41" transform="matrix(1 0 0 1 1352.57 871)">24</text></g><g clip-path="url(#clip26)"><text fill="#595959" font-family="Calibri,Calibri_MSFontService,sans-serif" font-weight="400" font-size="41" transform="matrix(1 0 0 1 1352.57 784)">26</text></g><g clip-path="url(#clip27)"><text fill="#595959" font-family="Calibri,Calibri_MSFontService,sans-serif" font-weight="400" font-size="41" transform="matrix(1 0 0 1 1352.57 697)">28</text></g><g clip-path="url(#clip28)"><text fill="#595959" font-family="Calibri,Calibri_MSFontService,sans-serif" font-weight="400" font-size="41" transform="matrix(1 0 0 1 1352.57 610)">30</text></g><g clip-path="url(#clip29)"><text fill="#595959" font-family="Calibri,Calibri_MSFontService,sans-serif" font-weight="400" font-size="41" transform="matrix(1 0 0 1 1352.57 523)">32</text></g><g clip-path="url(#clip30)"><text fill="#595959" font-family="Calibri,Calibri_MSFontService,sans-serif" font-weight="400" font-size="41" transform="matrix(1 0 0 1 1422.19 1969)">0</text></g><g clip-path="url(#clip31)"><text fill="#595959" font-family="Calibri,Calibri_MSFontService,sans-serif" font-weight="400" font-size="41" transform="matrix(1 0 0 1 1526.59 1969)">2</text></g><g clip-path="url(#clip32)"><text fill="#595959" font-family="Calibri,Calibri_MSFontService,sans-serif" font-weight="400" font-size="41" transform="matrix(1 0 0 1 1631 1969)">4</text></g><g clip-path="url(#clip33)"><text fill="#595959" font-family="Calibri,Calibri_MSFontService,sans-serif" font-weight="400" font-size="41" transform="matrix(1 0 0 1 1735.4 1969)">6</text></g><g clip-path="url(#clip34)"><text fill="#595959" font-family="Calibri,Calibri_MSFontService,sans-serif" font-weight="400" font-size="41" transform="matrix(1 0 0 1 1839.8 1969)">8</text></g><g clip-path="url(#clip35)"><text fill="#595959" font-family="Calibri,Calibri_MSFontService,sans-serif" font-weight="400" font-size="41" transform="matrix(1 0 0 1 1933.76 1969)">10</text></g><g clip-path="url(#clip36)"><text fill="#595959" font-family="Calibri,Calibri_MSFontService,sans-serif" font-weight="400" font-size="41" transform="matrix(1 0 0 1 2038.16 1969)">12</text></g><g clip-path="url(#clip37)"><text fill="#595959" font-family="Calibri,Calibri_MSFontService,sans-serif" font-weight="400" font-size="41" transform="matrix(1 0 0 1 2142.56 1969)">14</text></g><g clip-path="url(#clip38)"><text fill="#595959" font-family="Calibri,Calibri_MSFontService,sans-serif" font-weight="400" font-size="41" transform="matrix(1 0 0 1 2246.97 1969)">16</text></g><g clip-path="url(#clip39)"><text fill="#595959" font-family="Calibri,Calibri_MSFontService,sans-serif" font-weight="400" font-size="41" transform="matrix(1 0 0 1 2351.37 1969)">18</text></g><g clip-path="url(#clip40)"><text fill="#595959" font-family="Calibri,Calibri_MSFontService,sans-serif" font-weight="400" font-size="41" transform="matrix(1 0 0 1 2455.77 1969)">20</text></g><g clip-path="url(#clip41)"><text fill="#595959" font-family="Calibri,Calibri_MSFontService,sans-serif" font-weight="400" font-size="41" transform="matrix(1 0 0 1 2560.18 1969)">22</text></g><g clip-path="url(#clip42)"><text fill="#595959" font-family="Calibri,Calibri_MSFontService,sans-serif" font-weight="400" font-size="41" transform="matrix(1 0 0 1 2664.58 1969)">24</text></g><g clip-path="url(#clip43)"><text fill="#595959" font-family="Calibri,Calibri_MSFontService,sans-serif" font-weight="400" font-size="41" transform="matrix(1 0 0 1 2768.98 1969)">26</text></g><g clip-path="url(#clip44)"><text fill="#595959" font-family="Calibri,Calibri_MSFontService,sans-serif" font-weight="400" font-size="41" transform="matrix(1 0 0 1 2873.39 1969)">28</text></g><g clip-path="url(#clip45)"><text fill="#595959" font-family="Calibri,Calibri_MSFontService,sans-serif" font-weight="400" font-size="41" transform="matrix(1 0 0 1 2977.79 1969)">30</text></g><g clip-path="url(#clip46)"><text fill="#595959" font-family="Calibri,Calibri_MSFontService,sans-serif" font-weight="400" font-size="41" transform="matrix(1 0 0 1 3082.19 1969)">32</text></g><g clip-path="url(#clip47)"><text fill="#595959" font-family="Calibri,Calibri_MSFontService,sans-serif" font-weight="400" font-size="46" transform="matrix(6.12323e-17 -1 1 6.12323e-17 1326.88 1218)">S</text></g><g clip-path="url(#clip48)"><text fill="#595959" font-family="Calibri,Calibri_MSFontService,sans-serif" font-weight="400" font-size="46" transform="matrix(1 0 0 1 2255.82 2038)">p</text></g><g clip-path="url(#clip49)"><text fill="#595959" font-family="Calibri,Calibri_MSFontService,sans-serif" font-weight="400" font-size="64" transform="matrix(1 0 0 1 1602.38 358)">Ускорение при динамично централизирано </text></g><g clip-path="url(#clip50)"><text fill="#595959" font-family="Calibri,Calibri_MSFontService,sans-serif" font-weight="400" font-size="64" transform="matrix(1 0 0 1 2022.42 436)">балансиране</text></g><g clip-path="url(#clip51)"><path d="M1819.5 2145.5 1907.5 2145.5" stroke="#4472C4" stroke-width="6.875" stroke-linecap="round" stroke-linejoin="round" stroke-miterlimit="10" fill="none" fill-rule="evenodd"/></g><g clip-path="url(#clip52)"><path d="M1874 2145.5C1874 2151.31 1869.07 2156.02 1863 2156.02 1856.92 2156.02 1852 2151.31 1852 2145.5 1852 2139.69 1856.92 2134.98 1863 2134.98 1869.07 2134.98 1874 2139.69 1874 2145.5Z" stroke="#4472C4" stroke-width="3.4375" stroke-linejoin="round" stroke-miterlimit="10" fill="#4472C4"/></g><g clip-path="url(#clip53)"><text fill="#595959" font-family="Calibri,Calibri_MSFontService,sans-serif" font-weight="400" font-size="41" transform="matrix(1 0 0 1 1916.46 2157)">g=1</text></g><g clip-path="url(#clip54)"><path d="M2018.5 2145.5 2106.5 2145.5" stroke="#ED7D31" stroke-width="6.875" stroke-linecap="round" stroke-linejoin="round" stroke-miterlimit="10" fill="none" fill-rule="evenodd"/></g><g clip-path="url(#clip55)"><path d="M2073 2145.5C2073 2151.31 2068.07 2156.02 2062 2156.02 2055.93 2156.02 2051 2151.31 2051 2145.5 2051 2139.69 2055.93 2134.98 2062 2134.98 2068.07 2134.98 2073 2139.69 2073 2145.5Z" stroke="#ED7D31" stroke-width="3.4375" stroke-linejoin="round" stroke-miterlimit="10" fill="#ED7D31"/></g><g clip-path="url(#clip56)"><text fill="#595959" font-family="Calibri,Calibri_MSFontService,sans-serif" font-weight="400" font-size="41" transform="matrix(1 0 0 1 2115.54 2157)">g=4</text></g><g clip-path="url(#clip57)"><path d="M2217.5 2145.5 2305.5 2145.5" stroke="#A5A5A5" stroke-width="6.875" stroke-linecap="round" stroke-linejoin="round" stroke-miterlimit="10" fill="none" fill-rule="evenodd"/></g><g clip-path="url(#clip58)"><path d="M2272 2145.5C2272 2151.31 2267.07 2156.02 2261 2156.02 2254.93 2156.02 2250 2151.31 2250 2145.5 2250 2139.69 2254.93 2134.98 2261 2134.98 2267.07 2134.98 2272 2139.69 2272 2145.5Z" stroke="#A5A5A5" stroke-width="3.4375" stroke-linejoin="round" stroke-miterlimit="10" fill="#A5A5A5"/></g><g clip-path="url(#clip59)"><text fill="#595959" font-family="Calibri,Calibri_MSFontService,sans-serif" font-weight="400" font-size="41" transform="matrix(1 0 0 1 2314.62 2157)">g=16</text></g><g clip-path="url(#clip60)"><path d="M2437.5 2145.5 2525.5 2145.5" stroke="#FFC000" stroke-width="6.875" stroke-linecap="round" stroke-linejoin="round" stroke-miterlimit="10" fill="none" fill-rule="evenodd"/></g><g clip-path="url(#clip61)"><path d="M2492 2145.5C2492 2151.31 2487.07 2156.02 2481 2156.02 2474.93 2156.02 2470 2151.31 2470 2145.5 2470 2139.69 2474.93 2134.98 2481 2134.98 2487.07 2134.98 2492 2139.69 2492 2145.5Z" stroke="#FFC000" stroke-width="3.4375" stroke-linejoin="round" stroke-miterlimit="10" fill="#FFC000"/></g><g clip-path="url(#clip62)"><text fill="#595959" font-family="Calibri,Calibri_MSFontService,sans-serif" font-weight="400" font-size="41" transform="matrix(1 0 0 1 2534.59 2157)">HW</text></g></g></svg>