<svg width="1948" height="1949" xmlns="http://www.w3.org/2000/svg" xmlns:xlink="http://www.w3.org/1999/xlink" xml:space="preserve" overflow="hidden"><defs><clipPath id="clip0"><rect x="1226" y="263" width="1948" height="1949"/></clipPath><clipPath id="clip1"><rect x="1225" y="263" width="1949" height="1948"/></clipPath><clipPath id="clip2"><rect x="1225" y="263" width="1949" height="1948"/></clipPath><clipPath id="clip3"><rect x="1225" y="263" width="1949" height="1948"/></clipPath><clipPath id="clip4"><rect x="1225" y="263" width="1949" height="1948"/></clipPath><clipPath id="clip5"><rect x="1443" y="511" width="1663" height="1395"/></clipPath><clipPath id="clip6"><rect x="1225" y="263" width="1949" height="1948"/></clipPath><clipPath id="clip7"><rect x="1443" y="511" width="1663" height="1395"/></clipPath><clipPath id="clip8"><rect x="1225" y="263" width="1949" height="1948"/></clipPath><clipPath id="clip9"><rect x="1443" y="511" width="1663" height="1395"/></clipPath><clipPath id="clip10"><rect x="1225" y="263" width="1949" height="1948"/></clipPath><clipPath id="clip11"><rect x="1225" y="263" width="1949" height="1948"/></clipPath><clipPath id="clip12"><rect x="1225" y="263" width="1949" height="1948"/></clipPath><clipPath id="clip13"><rect x="1225" y="263" width="1949" height="1948"/></clipPath><clipPath id="clip14"><rect x="1225" y="263" width="1949" height="1948"/></clipPath><clipPath id="clip15"><rect x="1225" y="263" width="1949" height="1948"/></clipPath><clipPath id="clip16"><rect x="1225" y="263" width="1949" height="1948"/></clipPath><clipPath id="clip17"><rect x="1225" y="263" width="1949" height="1948"/></clipPath><clipPath id="clip18"><rect x="1225" y="263" width="1949" height="1948"/></clipPath><clipPath id="clip19"><rect x="1225" y="263" width="1949" height="1948"/></clipPath><clipPath id="clip20"><rect x="1225" y="263" width="1949" height="1948"/></clipPath><clipPath id="clip21"><rect x="1225" y="263" width="1949" height="1948"/></clipPath><clipPath id="clip22"><rect x="1225" y="263" width="1949" height="1948"/></clipPath><clipPath id="clip23"><rect x="1225" y="263" width="1949" height="1948"/></clipPath><clipPath id="clip24"><rect x="1225" y="263" width="1949" height="1948"/></clipPath><clipPath id="clip25"><rect x="1225" y="263" width="1949" height="1948"/></clipPath><clipPath id="clip26"><rect x="1225" y="263" width="1949" height="1948"/></clipPath><clipPath id="clip27"><rect x="1225" y="263" width="1949" height="1948"/></clipPath><clipPath id="clip28"><rect x="1225" y="263" width="1949" height="1948"/></clipPath><clipPath id="clip29"><rect x="1225" y="263" width="1949" height="1948"/></clipPath><clipPath id="clip30"><rect x="1225" y="263" width="1949" height="1948"/></clipPath><clipPath id="clip31"><rect x="1225" y="263" width="1949" height="1948"/></clipPath><clipPath id="clip32"><rect x="1225" y="263" width="1949" height="1948"/></clipPath><clipPath id="clip33"><rect x="1225" y="263" width="1949" height="1948"/></clipPath><clipPath id="clip34"><rect x="1225" y="263" width="1949" height="1948"/></clipPath><clipPath id="clip35"><rect x="1225" y="263" width="1949" height="1948"/></clipPath><clipPath id="clip36"><rect x="1225" y="263" width="1949" height="1948"/></clipPath><clipPath id="clip37"><rect x="1225" y="263" width="1949" height="1948"/></clipPath><clipPath id="clip38"><rect x="1225" y="263" width="1949" height="1948"/></clipPath><clipPath id="clip39"><rect x="1225" y="263" width="1949" height="1948"/></clipPath><clipPath id="clip40"><rect x="1225" y="263" width="1949" height="1948"/></clipPath><clipPath id="clip41"><rect x="1225" y="263" width="1949" height="1948"/></clipPath><clipPath id="clip42"><rect x="1225" y="263" width="1949" height="1948"/></clipPath><clipPath id="clip43"><rect x="1225" y="263" width="1949" height="1948"/></clipPath><clipPath id="clip44"><rect x="1225" y="263" width="1949" height="1948"/></clipPath><clipPath id="clip45"><rect x="1225" y="263" width="1949" height="1948"/></clipPath><clipPath id="clip46"><rect x="1225" y="263" width="1949" height="1948"/></clipPath><clipPath id="clip47"><rect x="1225" y="263" width="1949" height="1948"/></clipPath></defs><g clip-path="url(#clip0)" transform="translate(-1226 -263)"><g clip-path="url(#clip1)"><path d="M1443.5 1671.56 3103.5 1671.56M1443.5 1439.55 3103.5 1439.55M1443.5 1207.54 3103.5 1207.54M1443.5 975.532 3103.5 975.532M1443.5 743.525 3103.5 743.525M1443.5 511.5 3103.5 511.5" stroke="#D9D9D9" stroke-width="3.4375" stroke-linejoin="round" stroke-miterlimit="10" fill="none"/></g><g clip-path="url(#clip2)"><path d="M1546.55 511.5 1546.55 1903.5M1650.55 511.5 1650.55 1903.5M1754.56 511.5 1754.56 1903.5M1857.56 511.5 1857.56 1903.5M1961.56 511.5 1961.56 1903.5M2065.57 511.5 2065.57 1903.5M2169.57 511.5 2169.57 1903.5M2272.57 511.5 2272.57 1903.5M2376.58 511.5 2376.58 1903.5M2480.58 511.5 2480.58 1903.5M2584.58 511.5 2584.58 1903.5M2687.59 511.5 2687.59 1903.5M2791.59 511.5 2791.59 1903.5M2895.6 511.5 2895.6 1903.5M2999.6 511.5 2999.6 1903.5M3103.5 511.5 3103.5 1903.5" stroke="#D9D9D9" stroke-width="3.4375" stroke-linejoin="round" stroke-miterlimit="10" fill="none"/></g><g clip-path="url(#clip3)"><path d="M0 0 0.000360892 1392" stroke="#BFBFBF" stroke-width="3.4375" stroke-linejoin="round" stroke-miterlimit="10" fill="none" fill-rule="evenodd" transform="matrix(1 0 0 -1 1443.5 1903.5)"/></g><g clip-path="url(#clip4)"><path d="M1443.5 1903.5 3103.5 1903.5" stroke="#BFBFBF" stroke-width="3.4375" stroke-linejoin="round" stroke-miterlimit="10" fill="none" fill-rule="evenodd"/></g><g clip-path="url(#clip5)"><path d="M1494.5 743.5 1546.55 778.526 1650.55 1262.54 1857.56 1400.55 2065.57 1425.55 2272.57 1445.55 2687.59 1480.55 3103.5 1556.5" stroke="#4472C4" stroke-width="6.875" stroke-linecap="round" stroke-linejoin="round" stroke-miterlimit="10" fill="none"/></g><g clip-path="url(#clip6)"><path d="M1505.09 743.59C1505.09 749.665 1500.17 754.59 1494.09 754.59 1488.02 754.59 1483.09 749.665 1483.09 743.59 1483.09 737.515 1488.02 732.591 1494.09 732.591 1500.17 732.591 1505.09 737.515 1505.09 743.59Z" stroke="#4472C4" stroke-width="3.4375" stroke-linejoin="round" stroke-miterlimit="10" fill="#4472C4"/><path d="M1557.09 778.59C1557.09 784.665 1552.17 789.59 1546.09 789.59 1540.02 789.59 1535.09 784.665 1535.09 778.59 1535.09 772.515 1540.02 767.591 1546.09 767.591 1552.17 767.591 1557.09 772.515 1557.09 778.59Z" stroke="#4472C4" stroke-width="3.4375" stroke-linejoin="round" stroke-miterlimit="10" fill="#4472C4"/><path d="M1661.09 1262.59C1661.09 1268.67 1656.17 1273.59 1650.09 1273.59 1644.02 1273.59 1639.09 1268.67 1639.09 1262.59 1639.09 1256.52 1644.02 1251.59 1650.09 1251.59 1656.17 1251.59 1661.09 1256.52 1661.09 1262.59Z" stroke="#4472C4" stroke-width="3.4375" stroke-linejoin="round" stroke-miterlimit="10" fill="#4472C4"/><path d="M1869.09 1400.59C1869.09 1406.67 1864.17 1411.59 1858.09 1411.59 1852.02 1411.59 1847.09 1406.67 1847.09 1400.59 1847.09 1394.52 1852.02 1389.59 1858.09 1389.59 1864.17 1389.59 1869.09 1394.52 1869.09 1400.59Z" stroke="#4472C4" stroke-width="3.4375" stroke-linejoin="round" stroke-miterlimit="10" fill="#4472C4"/><path d="M2076.09 1425.59C2076.09 1431.67 2071.17 1436.59 2065.09 1436.59 2059.02 1436.59 2054.09 1431.67 2054.09 1425.59 2054.09 1419.52 2059.02 1414.59 2065.09 1414.59 2071.17 1414.59 2076.09 1419.52 2076.09 1425.59Z" stroke="#4472C4" stroke-width="3.4375" stroke-linejoin="round" stroke-miterlimit="10" fill="#4472C4"/><path d="M2284.09 1445.59C2284.09 1451.67 2279.17 1456.59 2273.09 1456.59 2267.02 1456.59 2262.09 1451.67 2262.09 1445.59 2262.09 1439.52 2267.02 1434.59 2273.09 1434.59 2279.17 1434.59 2284.09 1439.52 2284.09 1445.59Z" stroke="#4472C4" stroke-width="3.4375" stroke-linejoin="round" stroke-miterlimit="10" fill="#4472C4"/><path d="M2699.09 1480.59C2699.09 1486.67 2694.16 1491.59 2688.09 1491.59 2682.01 1491.59 2677.09 1486.67 2677.09 1480.59 2677.09 1474.52 2682.01 1469.59 2688.09 1469.59 2694.16 1469.59 2699.09 1474.52 2699.09 1480.59Z" stroke="#4472C4" stroke-width="3.4375" stroke-linejoin="round" stroke-miterlimit="10" fill="#4472C4"/><path d="M3114.09 1556.59C3114.09 1562.67 3109.16 1567.59 3103.09 1567.59 3097.01 1567.59 3092.09 1562.67 3092.09 1556.59 3092.09 1550.52 3097.01 1545.59 3103.09 1545.59 3109.16 1545.59 3114.09 1550.52 3114.09 1556.59Z" stroke="#4472C4" stroke-width="3.4375" stroke-linejoin="round" stroke-miterlimit="10" fill="#4472C4"/></g><g clip-path="url(#clip7)"><path d="M1494.5 744.5 1546.55 773.526 1650.55 855.528 1857.56 971.532 2065.57 1031.53 2272.57 1098.54 2687.59 1333.54 3103.5 1468.5" stroke="#ED7D31" stroke-width="6.875" stroke-linecap="round" stroke-linejoin="round" stroke-miterlimit="10" fill="none"/></g><g clip-path="url(#clip8)"><path d="M1505.09 744.59C1505.09 750.665 1500.17 755.59 1494.09 755.59 1488.02 755.59 1483.09 750.665 1483.09 744.59 1483.09 738.515 1488.02 733.591 1494.09 733.591 1500.17 733.591 1505.09 738.515 1505.09 744.59Z" stroke="#ED7D31" stroke-width="3.4375" stroke-linejoin="round" stroke-miterlimit="10" fill="#ED7D31"/><path d="M1557.09 773.59C1557.09 779.665 1552.17 784.59 1546.09 784.59 1540.02 784.59 1535.09 779.665 1535.09 773.59 1535.09 767.515 1540.02 762.591 1546.09 762.591 1552.17 762.591 1557.09 767.515 1557.09 773.59Z" stroke="#ED7D31" stroke-width="3.4375" stroke-linejoin="round" stroke-miterlimit="10" fill="#ED7D31"/><path d="M1661.09 855.59C1661.09 861.665 1656.17 866.59 1650.09 866.59 1644.02 866.59 1639.09 861.665 1639.09 855.59 1639.09 849.515 1644.02 844.591 1650.09 844.591 1656.17 844.591 1661.09 849.515 1661.09 855.59Z" stroke="#ED7D31" stroke-width="3.4375" stroke-linejoin="round" stroke-miterlimit="10" fill="#ED7D31"/><path d="M1869.09 971.59C1869.09 977.665 1864.17 982.59 1858.09 982.59 1852.02 982.59 1847.09 977.665 1847.09 971.59 1847.09 965.515 1852.02 960.591 1858.09 960.591 1864.17 960.591 1869.09 965.515 1869.09 971.59Z" stroke="#ED7D31" stroke-width="3.4375" stroke-linejoin="round" stroke-miterlimit="10" fill="#ED7D31"/><path d="M2076.09 1031.59C2076.09 1037.67 2071.17 1042.59 2065.09 1042.59 2059.02 1042.59 2054.09 1037.67 2054.09 1031.59 2054.09 1025.52 2059.02 1020.59 2065.09 1020.59 2071.17 1020.59 2076.09 1025.52 2076.09 1031.59Z" stroke="#ED7D31" stroke-width="3.4375" stroke-linejoin="round" stroke-miterlimit="10" fill="#ED7D31"/><path d="M2284.09 1098.59C2284.09 1104.67 2279.17 1109.59 2273.09 1109.59 2267.02 1109.59 2262.09 1104.67 2262.09 1098.59 2262.09 1092.52 2267.02 1087.59 2273.09 1087.59 2279.17 1087.59 2284.09 1092.52 2284.09 1098.59Z" stroke="#ED7D31" stroke-width="3.4375" stroke-linejoin="round" stroke-miterlimit="10" fill="#ED7D31"/><path d="M2699.09 1333.59C2699.09 1339.67 2694.16 1344.59 2688.09 1344.59 2682.01 1344.59 2677.09 1339.67 2677.09 1333.59 2677.09 1327.52 2682.01 1322.59 2688.09 1322.59 2694.16 1322.59 2699.09 1327.52 2699.09 1333.59Z" stroke="#ED7D31" stroke-width="3.4375" stroke-linejoin="round" stroke-miterlimit="10" fill="#ED7D31"/><path d="M3114.09 1468.59C3114.09 1474.67 3109.16 1479.59 3103.09 1479.59 3097.01 1479.59 3092.09 1474.67 3092.09 1468.59 3092.09 1462.52 3097.01 1457.59 3103.09 1457.59 3109.16 1457.59 3114.09 1462.52 3114.09 1468.59Z" stroke="#ED7D31" stroke-width="3.4375" stroke-linejoin="round" stroke-miterlimit="10" fill="#ED7D31"/></g><g clip-path="url(#clip9)"><path d="M1494.5 739.5 1546.55 772.526 1650.55 802.526 1857.56 882.529 2065.57 952.531 2272.57 1039.53 2687.59 1317.54 3103.5 1451.5" stroke="#A5A5A5" stroke-width="6.875" stroke-linecap="round" stroke-linejoin="round" stroke-miterlimit="10" fill="none"/></g><g clip-path="url(#clip10)"><path d="M1505.09 739.59C1505.09 745.665 1500.17 750.59 1494.09 750.59 1488.02 750.59 1483.09 745.665 1483.09 739.59 1483.09 733.515 1488.02 728.59 1494.09 728.59 1500.17 728.59 1505.09 733.515 1505.09 739.59Z" stroke="#A5A5A5" stroke-width="3.4375" stroke-linejoin="round" stroke-miterlimit="10" fill="#A5A5A5"/><path d="M1557.09 772.59C1557.09 778.665 1552.17 783.59 1546.09 783.59 1540.02 783.59 1535.09 778.665 1535.09 772.59 1535.09 766.515 1540.02 761.59 1546.09 761.59 1552.17 761.59 1557.09 766.515 1557.09 772.59Z" stroke="#A5A5A5" stroke-width="3.4375" stroke-linejoin="round" stroke-miterlimit="10" fill="#A5A5A5"/><path d="M1661.09 802.59C1661.09 808.665 1656.17 813.59 1650.09 813.59 1644.02 813.59 1639.09 808.665 1639.09 802.59 1639.09 796.516 1644.02 791.591 1650.09 791.591 1656.17 791.591 1661.09 796.516 1661.09 802.59Z" stroke="#A5A5A5" stroke-width="3.4375" stroke-linejoin="round" stroke-miterlimit="10" fill="#A5A5A5"/><path d="M1869.09 882.59C1869.09 888.665 1864.17 893.59 1858.09 893.59 1852.02 893.59 1847.09 888.665 1847.09 882.59 1847.09 876.515 1852.02 871.59 1858.09 871.59 1864.17 871.59 1869.09 876.515 1869.09 882.59Z" stroke="#A5A5A5" stroke-width="3.4375" stroke-linejoin="round" stroke-miterlimit="10" fill="#A5A5A5"/><path d="M2076.09 952.59C2076.09 958.665 2071.17 963.59 2065.09 963.59 2059.02 963.59 2054.09 958.665 2054.09 952.59 2054.09 946.515 2059.02 941.591 2065.09 941.591 2071.17 941.591 2076.09 946.515 2076.09 952.59Z" stroke="#A5A5A5" stroke-width="3.4375" stroke-linejoin="round" stroke-miterlimit="10" fill="#A5A5A5"/><path d="M2284.09 1039.59C2284.09 1045.67 2279.17 1050.59 2273.09 1050.59 2267.02 1050.59 2262.09 1045.67 2262.09 1039.59 2262.09 1033.52 2267.02 1028.59 2273.09 1028.59 2279.17 1028.59 2284.09 1033.52 2284.09 1039.59Z" stroke="#A5A5A5" stroke-width="3.4375" stroke-linejoin="round" stroke-miterlimit="10" fill="#A5A5A5"/><path d="M2699.09 1317.59C2699.09 1323.67 2694.16 1328.59 2688.09 1328.59 2682.01 1328.59 2677.09 1323.67 2677.09 1317.59 2677.09 1311.52 2682.01 1306.59 2688.09 1306.59 2694.16 1306.59 2699.09 1311.52 2699.09 1317.59Z" stroke="#A5A5A5" stroke-width="3.4375" stroke-linejoin="round" stroke-miterlimit="10" fill="#A5A5A5"/><path d="M3114.09 1451.59C3114.09 1457.67 3109.16 1462.59 3103.09 1462.59 3097.01 1462.59 3092.09 1457.67 3092.09 1451.59 3092.09 1445.52 3097.01 1440.59 3103.09 1440.59 3109.16 1440.59 3114.09 1445.52 3114.09 1451.59Z" stroke="#A5A5A5" stroke-width="3.4375" stroke-linejoin="round" stroke-miterlimit="10" fill="#A5A5A5"/></g><g clip-path="url(#clip11)"><text fill="#595959" font-family="Calibri,Calibri_MSFontService,sans-serif" font-weight="400" font-size="41" transform="matrix(1 0 0 1 1352.57 1915)">0.0</text></g><g clip-path="url(#clip12)"><text fill="#595959" font-family="Calibri,Calibri_MSFontService,sans-serif" font-weight="400" font-size="41" transform="matrix(1 0 0 1 1352.57 1683)">0.2</text></g><g clip-path="url(#clip13)"><text fill="#595959" font-family="Calibri,Calibri_MSFontService,sans-serif" font-weight="400" font-size="41" transform="matrix(1 0 0 1 1352.57 1451)">0.4</text></g><g clip-path="url(#clip14)"><text fill="#595959" font-family="Calibri,Calibri_MSFontService,sans-serif" font-weight="400" font-size="41" transform="matrix(1 0 0 1 1352.57 1219)">0.6</text></g><g clip-path="url(#clip15)"><text fill="#595959" font-family="Calibri,Calibri_MSFontService,sans-serif" font-weight="400" font-size="41" transform="matrix(1 0 0 1 1352.57 987)">0.8</text></g><g clip-path="url(#clip16)"><text fill="#595959" font-family="Calibri,Calibri_MSFontService,sans-serif" font-weight="400" font-size="41" transform="matrix(1 0 0 1 1352.57 755)">1.0</text></g><g clip-path="url(#clip17)"><text fill="#595959" font-family="Calibri,Calibri_MSFontService,sans-serif" font-weight="400" font-size="41" transform="matrix(1 0 0 1 1352.57 523)">1.2</text></g><g clip-path="url(#clip18)"><text fill="#595959" font-family="Calibri,Calibri_MSFontService,sans-serif" font-weight="400" font-size="41" transform="matrix(1 0 0 1 1432.59 1969)">0</text></g><g clip-path="url(#clip19)"><text fill="#595959" font-family="Calibri,Calibri_MSFontService,sans-serif" font-weight="400" font-size="41" transform="matrix(1 0 0 1 1536.35 1969)">2</text></g><g clip-path="url(#clip20)"><text fill="#595959" font-family="Calibri,Calibri_MSFontService,sans-serif" font-weight="400" font-size="41" transform="matrix(1 0 0 1 1640.1 1969)">4</text></g><g clip-path="url(#clip21)"><text fill="#595959" font-family="Calibri,Calibri_MSFontService,sans-serif" font-weight="400" font-size="41" transform="matrix(1 0 0 1 1743.85 1969)">6</text></g><g clip-path="url(#clip22)"><text fill="#595959" font-family="Calibri,Calibri_MSFontService,sans-serif" font-weight="400" font-size="41" transform="matrix(1 0 0 1 1847.61 1969)">8</text></g><g clip-path="url(#clip23)"><text fill="#595959" font-family="Calibri,Calibri_MSFontService,sans-serif" font-weight="400" font-size="41" transform="matrix(1 0 0 1 1940.91 1969)">10</text></g><g clip-path="url(#clip24)"><text fill="#595959" font-family="Calibri,Calibri_MSFontService,sans-serif" font-weight="400" font-size="41" transform="matrix(1 0 0 1 2044.66 1969)">12</text></g><g clip-path="url(#clip25)"><text fill="#595959" font-family="Calibri,Calibri_MSFontService,sans-serif" font-weight="400" font-size="41" transform="matrix(1 0 0 1 2148.41 1969)">14</text></g><g clip-path="url(#clip26)"><text fill="#595959" font-family="Calibri,Calibri_MSFontService,sans-serif" font-weight="400" font-size="41" transform="matrix(1 0 0 1 2252.17 1969)">16</text></g><g clip-path="url(#clip27)"><text fill="#595959" font-family="Calibri,Calibri_MSFontService,sans-serif" font-weight="400" font-size="41" transform="matrix(1 0 0 1 2355.92 1969)">18</text></g><g clip-path="url(#clip28)"><text fill="#595959" font-family="Calibri,Calibri_MSFontService,sans-serif" font-weight="400" font-size="41" transform="matrix(1 0 0 1 2459.67 1969)">20</text></g><g clip-path="url(#clip29)"><text fill="#595959" font-family="Calibri,Calibri_MSFontService,sans-serif" font-weight="400" font-size="41" transform="matrix(1 0 0 1 2563.43 1969)">22</text></g><g clip-path="url(#clip30)"><text fill="#595959" font-family="Calibri,Calibri_MSFontService,sans-serif" font-weight="400" font-size="41" transform="matrix(1 0 0 1 2667.18 1969)">24</text></g><g clip-path="url(#clip31)"><text fill="#595959" font-family="Calibri,Calibri_MSFontService,sans-serif" font-weight="400" font-size="41" transform="matrix(1 0 0 1 2770.93 1969)">26</text></g><g clip-path="url(#clip32)"><text fill="#595959" font-family="Calibri,Calibri_MSFontService,sans-serif" font-weight="400" font-size="41" transform="matrix(1 0 0 1 2874.69 1969)">28</text></g><g clip-path="url(#clip33)"><text fill="#595959" font-family="Calibri,Calibri_MSFontService,sans-serif" font-weight="400" font-size="41" transform="matrix(1 0 0 1 2978.44 1969)">30</text></g><g clip-path="url(#clip34)"><text fill="#595959" font-family="Calibri,Calibri_MSFontService,sans-serif" font-weight="400" font-size="41" transform="matrix(1 0 0 1 3082.19 1969)">32</text></g><g clip-path="url(#clip35)"><text fill="#595959" font-family="Calibri,Calibri_MSFontService,sans-serif" font-weight="400" font-size="46" transform="matrix(6.12323e-17 -1 1 6.12323e-17 1326.88 1219)">E</text></g><g clip-path="url(#clip36)"><text fill="#595959" font-family="Calibri,Calibri_MSFontService,sans-serif" font-weight="400" font-size="46" transform="matrix(1 0 0 1 2261.02 2038)">p</text></g><g clip-path="url(#clip37)"><text fill="#595959" font-family="Calibri,Calibri_MSFontService,sans-serif" font-weight="400" font-size="64" transform="matrix(1 0 0 1 1591.52 358)">Ефективност при динамично центализирано </text></g><g clip-path="url(#clip38)"><text fill="#595959" font-family="Calibri,Calibri_MSFontService,sans-serif" font-weight="400" font-size="64" transform="matrix(1 0 0 1 2022.42 436)">балансиране</text></g><g clip-path="url(#clip39)"><path d="M1921.5 2145.5 2009.5 2145.5" stroke="#4472C4" stroke-width="6.875" stroke-linecap="round" stroke-linejoin="round" stroke-miterlimit="10" fill="none" fill-rule="evenodd"/></g><g clip-path="url(#clip40)"><path d="M1976 2145.5C1976 2151.31 1971.08 2156.02 1965 2156.02 1958.93 2156.02 1954 2151.31 1954 2145.5 1954 2139.69 1958.93 2134.98 1965 2134.98 1971.08 2134.98 1976 2139.69 1976 2145.5Z" stroke="#4472C4" stroke-width="3.4375" stroke-linejoin="round" stroke-miterlimit="10" fill="#4472C4"/></g><g clip-path="url(#clip41)"><text fill="#595959" font-family="Calibri,Calibri_MSFontService,sans-serif" font-weight="400" font-size="41" transform="matrix(1 0 0 1 2018.33 2157)">g=1</text></g><g clip-path="url(#clip42)"><path d="M2118.5 2145.5 2206.5 2145.5" stroke="#ED7D31" stroke-width="6.875" stroke-linecap="round" stroke-linejoin="round" stroke-miterlimit="10" fill="none" fill-rule="evenodd"/></g><g clip-path="url(#clip43)"><path d="M2173 2145.5C2173 2151.31 2168.07 2156.02 2162 2156.02 2155.93 2156.02 2151 2151.31 2151 2145.5 2151 2139.69 2155.93 2134.98 2162 2134.98 2168.07 2134.98 2173 2139.69 2173 2145.5Z" stroke="#ED7D31" stroke-width="3.4375" stroke-linejoin="round" stroke-miterlimit="10" fill="#ED7D31"/></g><g clip-path="url(#clip44)"><text fill="#595959" font-family="Calibri,Calibri_MSFontService,sans-serif" font-weight="400" font-size="41" transform="matrix(1 0 0 1 2215.85 2157)">g=4</text></g><g clip-path="url(#clip45)"><path d="M2316.5 2145.5 2404.5 2145.5" stroke="#A5A5A5" stroke-width="6.875" stroke-linecap="round" stroke-linejoin="round" stroke-miterlimit="10" fill="none" fill-rule="evenodd"/></g><g clip-path="url(#clip46)"><path d="M2371 2145.5C2371 2151.31 2366.07 2156.02 2360 2156.02 2353.93 2156.02 2349 2151.31 2349 2145.5 2349 2139.69 2353.93 2134.98 2360 2134.98 2366.07 2134.98 2371 2139.69 2371 2145.5Z" stroke="#A5A5A5" stroke-width="3.4375" stroke-linejoin="round" stroke-miterlimit="10" fill="#A5A5A5"/></g><g clip-path="url(#clip47)"><text fill="#595959" font-family="Calibri,Calibri_MSFontService,sans-serif" font-weight="400" font-size="41" transform="matrix(1 0 0 1 2413.36 2157)">g=16</text></g></g></svg>