<svg width="1948" height="1949" xmlns="http://www.w3.org/2000/svg" xmlns:xlink="http://www.w3.org/1999/xlink" xml:space="preserve" overflow="hidden"><defs><clipPath id="clip0"><rect x="1226" y="263" width="1948" height="1949"/></clipPath><clipPath id="clip1"><rect x="1225" y="263" width="1949" height="1948"/></clipPath><clipPath id="clip2"><rect x="1225" y="263" width="1949" height="1948"/></clipPath><clipPath id="clip3"><rect x="1225" y="263" width="1949" height="1948"/></clipPath><clipPath id="clip4"><rect x="1225" y="263" width="1949" height="1948"/></clipPath><clipPath id="clip5"><rect x="1432" y="433" width="1674" height="1473"/></clipPath><clipPath id="clip6"><rect x="1225" y="263" width="1949" height="1948"/></clipPath><clipPath id="clip7"><rect x="1432" y="433" width="1674" height="1473"/></clipPath><clipPath id="clip8"><rect x="1225" y="263" width="1949" height="1948"/></clipPath><clipPath id="clip9"><rect x="1432" y="433" width="1674" height="1473"/></clipPath><clipPath id="clip10"><rect x="1225" y="263" width="1949" height="1948"/></clipPath><clipPath id="clip11"><rect x="1432" y="433" width="1674" height="1473"/></clipPath><clipPath id="clip12"><rect x="1225" y="263" width="1949" height="1948"/></clipPath><clipPath id="clip13"><rect x="1225" y="263" width="1949" height="1948"/></clipPath><clipPath id="clip14"><rect x="1225" y="263" width="1949" height="1948"/></clipPath><clipPath id="clip15"><rect x="1225" y="263" width="1949" height="1948"/></clipPath><clipPath id="clip16"><rect x="1225" y="263" width="1949" height="1948"/></clipPath><clipPath id="clip17"><rect x="1225" y="263" width="1949" height="1948"/></clipPath><clipPath id="clip18"><rect x="1225" y="263" width="1949" height="1948"/></clipPath><clipPath id="clip19"><rect x="1225" y="263" width="1949" height="1948"/></clipPath><clipPath id="clip20"><rect x="1225" y="263" width="1949" height="1948"/></clipPath><clipPath id="clip21"><rect x="1225" y="263" width="1949" height="1948"/></clipPath><clipPath id="clip22"><rect x="1225" y="263" width="1949" height="1948"/></clipPath><clipPath id="clip23"><rect x="1225" y="263" width="1949" height="1948"/></clipPath><clipPath id="clip24"><rect x="1225" y="263" width="1949" height="1948"/></clipPath><clipPath id="clip25"><rect x="1225" y="263" width="1949" height="1948"/></clipPath><clipPath id="clip26"><rect x="1225" y="263" width="1949" height="1948"/></clipPath><clipPath id="clip27"><rect x="1225" y="263" width="1949" height="1948"/></clipPath><clipPath id="clip28"><rect x="1225" y="263" width="1949" height="1948"/></clipPath><clipPath id="clip29"><rect x="1225" y="263" width="1949" height="1948"/></clipPath><clipPath id="clip30"><rect x="1225" y="263" width="1949" height="1948"/></clipPath><clipPath id="clip31"><rect x="1225" y="263" width="1949" height="1948"/></clipPath><clipPath id="clip32"><rect x="1225" y="263" width="1949" height="1948"/></clipPath><clipPath id="clip33"><rect x="1225" y="263" width="1949" height="1948"/></clipPath><clipPath id="clip34"><rect x="1225" y="263" width="1949" height="1948"/></clipPath><clipPath id="clip35"><rect x="1225" y="263" width="1949" height="1948"/></clipPath><clipPath id="clip36"><rect x="1225" y="263" width="1949" height="1948"/></clipPath><clipPath id="clip37"><rect x="1225" y="263" width="1949" height="1948"/></clipPath><clipPath id="clip38"><rect x="1225" y="263" width="1949" height="1948"/></clipPath><clipPath id="clip39"><rect x="1225" y="263" width="1949" height="1948"/></clipPath><clipPath id="clip40"><rect x="1225" y="263" width="1949" height="1948"/></clipPath><clipPath id="clip41"><rect x="1225" y="263" width="1949" height="1948"/></clipPath><clipPath id="clip42"><rect x="1225" y="263" width="1949" height="1948"/></clipPath><clipPath id="clip43"><rect x="1225" y="263" width="1949" height="1948"/></clipPath><clipPath id="clip44"><rect x="1225" y="263" width="1949" height="1948"/></clipPath><clipPath id="clip45"><rect x="1225" y="263" width="1949" height="1948"/></clipPath><clipPath id="clip46"><rect x="1225" y="263" width="1949" height="1948"/></clipPath><clipPath id="clip47"><rect x="1225" y="263" width="1949" height="1948"/></clipPath><clipPath id="clip48"><rect x="1225" y="263" width="1949" height="1948"/></clipPath><clipPath id="clip49"><rect x="1225" y="263" width="1949" height="1948"/></clipPath><clipPath id="clip50"><rect x="1225" y="263" width="1949" height="1948"/></clipPath><clipPath id="clip51"><rect x="1225" y="263" width="1949" height="1948"/></clipPath><clipPath id="clip52"><rect x="1225" y="263" width="1949" height="1948"/></clipPath><clipPath id="clip53"><rect x="1225" y="263" width="1949" height="1948"/></clipPath><clipPath id="clip54"><rect x="1225" y="263" width="1949" height="1948"/></clipPath><clipPath id="clip55"><rect x="1225" y="263" width="1949" height="1948"/></clipPath><clipPath id="clip56"><rect x="1225" y="263" width="1949" height="1948"/></clipPath><clipPath id="clip57"><rect x="1225" y="263" width="1949" height="1948"/></clipPath><clipPath id="clip58"><rect x="1225" y="263" width="1949" height="1948"/></clipPath><clipPath id="clip59"><rect x="1225" y="263" width="1949" height="1948"/></clipPath><clipPath id="clip60"><rect x="1225" y="263" width="1949" height="1948"/></clipPath><clipPath id="clip61"><rect x="1225" y="263" width="1949" height="1948"/></clipPath></defs><g clip-path="url(#clip0)" transform="translate(-1226 -263)"><g clip-path="url(#clip1)"><path d="M1432.5 1811.56 3103.5 1811.56M1432.5 1719.56 3103.5 1719.56M1432.5 1627.55 3103.5 1627.55M1432.5 1535.55 3103.5 1535.55M1432.5 1443.55 3103.5 1443.55M1432.5 1352.54 3103.5 1352.54M1432.5 1260.54 3103.5 1260.54M1432.5 1168.54 3103.5 1168.54M1432.5 1076.54 3103.5 1076.54M1432.5 984.532 3103.5 984.532M1432.5 892.529 3103.5 892.529M1432.5 800.526 3103.5 800.526M1432.5 708.523 3103.5 708.523M1432.5 616.52 3103.5 616.52M1432.5 524.517 3103.5 524.517M1432.5 433.5 3103.5 433.5" stroke="#D9D9D9" stroke-width="3.4375" stroke-linejoin="round" stroke-miterlimit="10" fill="none"/></g><g clip-path="url(#clip2)"><path d="M1536.55 433.5 1536.55 1903.5M1641.55 433.5 1641.55 1903.5M1745.56 433.5 1745.56 1903.5M1850.56 433.5 1850.56 1903.5M1954.56 433.5 1954.56 1903.5M2058.57 433.5 2058.57 1903.5M2163.57 433.5 2163.57 1903.5M2267.57 433.5 2267.57 1903.5M2372.58 433.5 2372.58 1903.5M2476.58 433.5 2476.58 1903.5M2580.58 433.5 2580.58 1903.5M2685.59 433.5 2685.59 1903.5M2789.59 433.5 2789.59 1903.5M2894.6 433.5 2894.6 1903.5M2998.6 433.5 2998.6 1903.5M3103.5 433.5 3103.5 1903.5" stroke="#D9D9D9" stroke-width="3.4375" stroke-linejoin="round" stroke-miterlimit="10" fill="none"/></g><g clip-path="url(#clip3)"><path d="M0 0 0.000360892 1470" stroke="#BFBFBF" stroke-width="3.4375" stroke-linejoin="round" stroke-miterlimit="10" fill="none" fill-rule="evenodd" transform="matrix(1 0 0 -1 1432.5 1903.5)"/></g><g clip-path="url(#clip4)"><path d="M1432.5 1903.5 3103.5 1903.5" stroke="#BFBFBF" stroke-width="3.4375" stroke-linejoin="round" stroke-miterlimit="10" fill="none" fill-rule="evenodd"/></g><g clip-path="url(#clip5)"><path d="M1484.5 1857.5 1536.55 1814.56 1641.55 1802.56 1850.56 1736.56 2058.57 1674.56 2267.57 1611.55 2685.59 1504.55 3103.5 1446.5" stroke="#4472C4" stroke-width="6.875" stroke-linecap="round" stroke-linejoin="round" stroke-miterlimit="10" fill="none"/></g><g clip-path="url(#clip6)"><path d="M1495.09 1857.59C1495.09 1863.67 1490.17 1868.59 1484.09 1868.59 1478.02 1868.59 1473.09 1863.67 1473.09 1857.59 1473.09 1851.52 1478.02 1846.59 1484.09 1846.59 1490.17 1846.59 1495.09 1851.52 1495.09 1857.59Z" stroke="#4472C4" stroke-width="3.4375" stroke-linejoin="round" stroke-miterlimit="10" fill="#4472C4"/><path d="M1548.09 1814.59C1548.09 1820.67 1543.17 1825.59 1537.09 1825.59 1531.02 1825.59 1526.09 1820.67 1526.09 1814.59 1526.09 1808.52 1531.02 1803.59 1537.09 1803.59 1543.17 1803.59 1548.09 1808.52 1548.09 1814.59Z" stroke="#4472C4" stroke-width="3.4375" stroke-linejoin="round" stroke-miterlimit="10" fill="#4472C4"/><path d="M1652.09 1802.59C1652.09 1808.67 1647.16 1813.59 1641.09 1813.59 1635.02 1813.59 1630.09 1808.67 1630.09 1802.59 1630.09 1796.52 1635.02 1791.59 1641.09 1791.59 1647.16 1791.59 1652.09 1796.52 1652.09 1802.59Z" stroke="#4472C4" stroke-width="3.4375" stroke-linejoin="round" stroke-miterlimit="10" fill="#4472C4"/><path d="M1861.09 1736.59C1861.09 1742.67 1856.16 1747.59 1850.09 1747.59 1844.02 1747.59 1839.09 1742.67 1839.09 1736.59 1839.09 1730.52 1844.02 1725.59 1850.09 1725.59 1856.16 1725.59 1861.09 1730.52 1861.09 1736.59Z" stroke="#4472C4" stroke-width="3.4375" stroke-linejoin="round" stroke-miterlimit="10" fill="#4472C4"/><path d="M2070.09 1674.59C2070.09 1680.67 2065.16 1685.59 2059.09 1685.59 2053.01 1685.59 2048.09 1680.67 2048.09 1674.59 2048.09 1668.52 2053.01 1663.59 2059.09 1663.59 2065.16 1663.59 2070.09 1668.52 2070.09 1674.59Z" stroke="#4472C4" stroke-width="3.4375" stroke-linejoin="round" stroke-miterlimit="10" fill="#4472C4"/><path d="M2278.09 1611.59C2278.09 1617.67 2273.16 1622.59 2267.09 1622.59 2261.01 1622.59 2256.09 1617.67 2256.09 1611.59 2256.09 1605.52 2261.01 1600.59 2267.09 1600.59 2273.16 1600.59 2278.09 1605.52 2278.09 1611.59Z" stroke="#4472C4" stroke-width="3.4375" stroke-linejoin="round" stroke-miterlimit="10" fill="#4472C4"/><path d="M2696.09 1504.59C2696.09 1510.67 2691.16 1515.59 2685.09 1515.59 2679.01 1515.59 2674.09 1510.67 2674.09 1504.59 2674.09 1498.52 2679.01 1493.59 2685.09 1493.59 2691.16 1493.59 2696.09 1498.52 2696.09 1504.59Z" stroke="#4472C4" stroke-width="3.4375" stroke-linejoin="round" stroke-miterlimit="10" fill="#4472C4"/><path d="M3114.09 1446.59C3114.09 1452.67 3109.16 1457.59 3103.09 1457.59 3097.01 1457.59 3092.09 1452.67 3092.09 1446.59 3092.09 1440.52 3097.01 1435.59 3103.09 1435.59 3109.16 1435.59 3114.09 1440.52 3114.09 1446.59Z" stroke="#4472C4" stroke-width="3.4375" stroke-linejoin="round" stroke-miterlimit="10" fill="#4472C4"/></g><g clip-path="url(#clip7)"><path d="M1484.5 1857.5 1536.55 1814.56 1641.55 1736.56 1850.56 1610.55 2058.57 1489.55 2267.57 1402.55 2685.59 1361.54 3103.5 1352.5" stroke="#ED7D31" stroke-width="6.875" stroke-linecap="round" stroke-linejoin="round" stroke-miterlimit="10" fill="none"/></g><g clip-path="url(#clip8)"><path d="M1495.09 1857.59C1495.09 1863.67 1490.17 1868.59 1484.09 1868.59 1478.02 1868.59 1473.09 1863.67 1473.09 1857.59 1473.09 1851.52 1478.02 1846.59 1484.09 1846.59 1490.17 1846.59 1495.09 1851.52 1495.09 1857.59Z" stroke="#ED7D31" stroke-width="3.4375" stroke-linejoin="round" stroke-miterlimit="10" fill="#ED7D31"/><path d="M1548.09 1814.59C1548.09 1820.67 1543.17 1825.59 1537.09 1825.59 1531.02 1825.59 1526.09 1820.67 1526.09 1814.59 1526.09 1808.52 1531.02 1803.59 1537.09 1803.59 1543.17 1803.59 1548.09 1808.52 1548.09 1814.59Z" stroke="#ED7D31" stroke-width="3.4375" stroke-linejoin="round" stroke-miterlimit="10" fill="#ED7D31"/><path d="M1652.09 1736.59C1652.09 1742.67 1647.16 1747.59 1641.09 1747.59 1635.02 1747.59 1630.09 1742.67 1630.09 1736.59 1630.09 1730.52 1635.02 1725.59 1641.09 1725.59 1647.16 1725.59 1652.09 1730.52 1652.09 1736.59Z" stroke="#ED7D31" stroke-width="3.4375" stroke-linejoin="round" stroke-miterlimit="10" fill="#ED7D31"/><path d="M1861.09 1610.59C1861.09 1616.67 1856.16 1621.59 1850.09 1621.59 1844.02 1621.59 1839.09 1616.67 1839.09 1610.59 1839.09 1604.52 1844.02 1599.59 1850.09 1599.59 1856.16 1599.59 1861.09 1604.52 1861.09 1610.59Z" stroke="#ED7D31" stroke-width="3.4375" stroke-linejoin="round" stroke-miterlimit="10" fill="#ED7D31"/><path d="M2070.09 1489.59C2070.09 1495.67 2065.16 1500.59 2059.09 1500.59 2053.01 1500.59 2048.09 1495.67 2048.09 1489.59 2048.09 1483.52 2053.01 1478.59 2059.09 1478.59 2065.16 1478.59 2070.09 1483.52 2070.09 1489.59Z" stroke="#ED7D31" stroke-width="3.4375" stroke-linejoin="round" stroke-miterlimit="10" fill="#ED7D31"/><path d="M2278.09 1402.59C2278.09 1408.67 2273.16 1413.59 2267.09 1413.59 2261.01 1413.59 2256.09 1408.67 2256.09 1402.59 2256.09 1396.52 2261.01 1391.59 2267.09 1391.59 2273.16 1391.59 2278.09 1396.52 2278.09 1402.59Z" stroke="#ED7D31" stroke-width="3.4375" stroke-linejoin="round" stroke-miterlimit="10" fill="#ED7D31"/><path d="M2696.09 1361.59C2696.09 1367.67 2691.16 1372.59 2685.09 1372.59 2679.01 1372.59 2674.09 1367.67 2674.09 1361.59 2674.09 1355.52 2679.01 1350.59 2685.09 1350.59 2691.16 1350.59 2696.09 1355.52 2696.09 1361.59Z" stroke="#ED7D31" stroke-width="3.4375" stroke-linejoin="round" stroke-miterlimit="10" fill="#ED7D31"/><path d="M3114.09 1352.59C3114.09 1358.67 3109.16 1363.59 3103.09 1363.59 3097.01 1363.59 3092.09 1358.67 3092.09 1352.59 3092.09 1346.52 3097.01 1341.59 3103.09 1341.59 3109.16 1341.59 3114.09 1346.52 3114.09 1352.59Z" stroke="#ED7D31" stroke-width="3.4375" stroke-linejoin="round" stroke-miterlimit="10" fill="#ED7D31"/></g><g clip-path="url(#clip9)"><path d="M1484.5 1857.5 1536.55 1813.56 1641.55 1731.56 1850.56 1577.55 2058.57 1451.55 2267.57 1365.54 2685.59 1337.54 3103.5 1329.5" stroke="#A5A5A5" stroke-width="6.875" stroke-linecap="round" stroke-linejoin="round" stroke-miterlimit="10" fill="none"/></g><g clip-path="url(#clip10)"><path d="M1495.09 1857.59C1495.09 1863.67 1490.17 1868.59 1484.09 1868.59 1478.02 1868.59 1473.09 1863.67 1473.09 1857.59 1473.09 1851.52 1478.02 1846.59 1484.09 1846.59 1490.17 1846.59 1495.09 1851.52 1495.09 1857.59Z" stroke="#A5A5A5" stroke-width="3.4375" stroke-linejoin="round" stroke-miterlimit="10" fill="#A5A5A5"/><path d="M1548.09 1813.59C1548.09 1819.67 1543.17 1824.59 1537.09 1824.59 1531.02 1824.59 1526.09 1819.67 1526.09 1813.59 1526.09 1807.52 1531.02 1802.59 1537.09 1802.59 1543.17 1802.59 1548.09 1807.52 1548.09 1813.59Z" stroke="#A5A5A5" stroke-width="3.4375" stroke-linejoin="round" stroke-miterlimit="10" fill="#A5A5A5"/><path d="M1652.09 1731.59C1652.09 1737.67 1647.16 1742.59 1641.09 1742.59 1635.02 1742.59 1630.09 1737.67 1630.09 1731.59 1630.09 1725.52 1635.02 1720.59 1641.09 1720.59 1647.16 1720.59 1652.09 1725.52 1652.09 1731.59Z" stroke="#A5A5A5" stroke-width="3.4375" stroke-linejoin="round" stroke-miterlimit="10" fill="#A5A5A5"/><path d="M1861.09 1577.59C1861.09 1583.67 1856.16 1588.59 1850.09 1588.59 1844.02 1588.59 1839.09 1583.67 1839.09 1577.59 1839.09 1571.52 1844.02 1566.59 1850.09 1566.59 1856.16 1566.59 1861.09 1571.52 1861.09 1577.59Z" stroke="#A5A5A5" stroke-width="3.4375" stroke-linejoin="round" stroke-miterlimit="10" fill="#A5A5A5"/><path d="M2070.09 1451.59C2070.09 1457.67 2065.16 1462.59 2059.09 1462.59 2053.01 1462.59 2048.09 1457.67 2048.09 1451.59 2048.09 1445.52 2053.01 1440.59 2059.09 1440.59 2065.16 1440.59 2070.09 1445.52 2070.09 1451.59Z" stroke="#A5A5A5" stroke-width="3.4375" stroke-linejoin="round" stroke-miterlimit="10" fill="#A5A5A5"/><path d="M2278.09 1365.59C2278.09 1371.67 2273.16 1376.59 2267.09 1376.59 2261.01 1376.59 2256.09 1371.67 2256.09 1365.59 2256.09 1359.52 2261.01 1354.59 2267.09 1354.59 2273.16 1354.59 2278.09 1359.52 2278.09 1365.59Z" stroke="#A5A5A5" stroke-width="3.4375" stroke-linejoin="round" stroke-miterlimit="10" fill="#A5A5A5"/><path d="M2696.09 1337.59C2696.09 1343.67 2691.16 1348.59 2685.09 1348.59 2679.01 1348.59 2674.09 1343.67 2674.09 1337.59 2674.09 1331.52 2679.01 1326.59 2685.09 1326.59 2691.16 1326.59 2696.09 1331.52 2696.09 1337.59Z" stroke="#A5A5A5" stroke-width="3.4375" stroke-linejoin="round" stroke-miterlimit="10" fill="#A5A5A5"/><path d="M3114.09 1329.59C3114.09 1335.67 3109.16 1340.59 3103.09 1340.59 3097.01 1340.59 3092.09 1335.67 3092.09 1329.59 3092.09 1323.52 3097.01 1318.59 3103.09 1318.59 3109.16 1318.59 3114.09 1323.52 3114.09 1329.59Z" stroke="#A5A5A5" stroke-width="3.4375" stroke-linejoin="round" stroke-miterlimit="10" fill="#A5A5A5"/></g><g clip-path="url(#clip11)"><path d="M1484.5 1857.5 1536.55 1811.56 1641.55 1719.56 1850.56 1535.55 2058.57 1352.54 2267.57 1168.54 2685.59 800.526 3103.5 433.5" stroke="#FFC000" stroke-width="6.875" stroke-linecap="round" stroke-linejoin="round" stroke-miterlimit="10" fill="none"/></g><g clip-path="url(#clip12)"><path d="M1495.09 1857.59C1495.09 1863.67 1490.17 1868.59 1484.09 1868.59 1478.02 1868.59 1473.09 1863.67 1473.09 1857.59 1473.09 1851.52 1478.02 1846.59 1484.09 1846.59 1490.17 1846.59 1495.09 1851.52 1495.09 1857.59Z" stroke="#FFC000" stroke-width="3.4375" stroke-linejoin="round" stroke-miterlimit="10" fill="#FFC000"/><path d="M1548.09 1811.59C1548.09 1817.67 1543.17 1822.59 1537.09 1822.59 1531.02 1822.59 1526.09 1817.67 1526.09 1811.59 1526.09 1805.52 1531.02 1800.59 1537.09 1800.59 1543.17 1800.59 1548.09 1805.52 1548.09 1811.59Z" stroke="#FFC000" stroke-width="3.4375" stroke-linejoin="round" stroke-miterlimit="10" fill="#FFC000"/><path d="M1652.09 1719.59C1652.09 1725.67 1647.16 1730.59 1641.09 1730.59 1635.02 1730.59 1630.09 1725.67 1630.09 1719.59 1630.09 1713.52 1635.02 1708.59 1641.09 1708.59 1647.16 1708.59 1652.09 1713.52 1652.09 1719.59Z" stroke="#FFC000" stroke-width="3.4375" stroke-linejoin="round" stroke-miterlimit="10" fill="#FFC000"/><path d="M1861.09 1535.59C1861.09 1541.67 1856.16 1546.59 1850.09 1546.59 1844.02 1546.59 1839.09 1541.67 1839.09 1535.59 1839.09 1529.52 1844.02 1524.59 1850.09 1524.59 1856.16 1524.59 1861.09 1529.52 1861.09 1535.59Z" stroke="#FFC000" stroke-width="3.4375" stroke-linejoin="round" stroke-miterlimit="10" fill="#FFC000"/><path d="M2070.09 1352.59C2070.09 1358.67 2065.16 1363.59 2059.09 1363.59 2053.01 1363.59 2048.09 1358.67 2048.09 1352.59 2048.09 1346.52 2053.01 1341.59 2059.09 1341.59 2065.16 1341.59 2070.09 1346.52 2070.09 1352.59Z" stroke="#FFC000" stroke-width="3.4375" stroke-linejoin="round" stroke-miterlimit="10" fill="#FFC000"/><path d="M2278.09 1168.59C2278.09 1174.67 2273.16 1179.59 2267.09 1179.59 2261.01 1179.59 2256.09 1174.67 2256.09 1168.59 2256.09 1162.52 2261.01 1157.59 2267.09 1157.59 2273.16 1157.59 2278.09 1162.52 2278.09 1168.59Z" stroke="#FFC000" stroke-width="3.4375" stroke-linejoin="round" stroke-miterlimit="10" fill="#FFC000"/><path d="M2696.09 800.59C2696.09 806.665 2691.16 811.59 2685.09 811.59 2679.01 811.59 2674.09 806.665 2674.09 800.59 2674.09 794.515 2679.01 789.591 2685.09 789.591 2691.16 789.591 2696.09 794.515 2696.09 800.59Z" stroke="#FFC000" stroke-width="3.4375" stroke-linejoin="round" stroke-miterlimit="10" fill="#FFC000"/><path d="M3114.09 433.59C3114.09 439.665 3109.16 444.59 3103.09 444.59 3097.01 444.59 3092.09 439.665 3092.09 433.59 3092.09 427.515 3097.01 422.591 3103.09 422.591 3109.16 422.591 3114.09 427.515 3114.09 433.59Z" stroke="#FFC000" stroke-width="3.4375" stroke-linejoin="round" stroke-miterlimit="10" fill="#FFC000"/></g><g clip-path="url(#clip13)"><text fill="#595959" font-family="Calibri,Calibri_MSFontService,sans-serif" font-weight="400" font-size="41" transform="matrix(1 0 0 1 1373.47 1915)">0</text></g><g clip-path="url(#clip14)"><text fill="#595959" font-family="Calibri,Calibri_MSFontService,sans-serif" font-weight="400" font-size="41" transform="matrix(1 0 0 1 1373.47 1823)">2</text></g><g clip-path="url(#clip15)"><text fill="#595959" font-family="Calibri,Calibri_MSFontService,sans-serif" font-weight="400" font-size="41" transform="matrix(1 0 0 1 1373.47 1731)">4</text></g><g clip-path="url(#clip16)"><text fill="#595959" font-family="Calibri,Calibri_MSFontService,sans-serif" font-weight="400" font-size="41" transform="matrix(1 0 0 1 1373.47 1639)">6</text></g><g clip-path="url(#clip17)"><text fill="#595959" font-family="Calibri,Calibri_MSFontService,sans-serif" font-weight="400" font-size="41" transform="matrix(1 0 0 1 1373.47 1547)">8</text></g><g clip-path="url(#clip18)"><text fill="#595959" font-family="Calibri,Calibri_MSFontService,sans-serif" font-weight="400" font-size="41" transform="matrix(1 0 0 1 1352.57 1456)">10</text></g><g clip-path="url(#clip19)"><text fill="#595959" font-family="Calibri,Calibri_MSFontService,sans-serif" font-weight="400" font-size="41" transform="matrix(1 0 0 1 1352.57 1364)">12</text></g><g clip-path="url(#clip20)"><text fill="#595959" font-family="Calibri,Calibri_MSFontService,sans-serif" font-weight="400" font-size="41" transform="matrix(1 0 0 1 1352.57 1272)">14</text></g><g clip-path="url(#clip21)"><text fill="#595959" font-family="Calibri,Calibri_MSFontService,sans-serif" font-weight="400" font-size="41" transform="matrix(1 0 0 1 1352.57 1180)">16</text></g><g clip-path="url(#clip22)"><text fill="#595959" font-family="Calibri,Calibri_MSFontService,sans-serif" font-weight="400" font-size="41" transform="matrix(1 0 0 1 1352.57 1088)">18</text></g><g clip-path="url(#clip23)"><text fill="#595959" font-family="Calibri,Calibri_MSFontService,sans-serif" font-weight="400" font-size="41" transform="matrix(1 0 0 1 1352.57 996)">20</text></g><g clip-path="url(#clip24)"><text fill="#595959" font-family="Calibri,Calibri_MSFontService,sans-serif" font-weight="400" font-size="41" transform="matrix(1 0 0 1 1352.57 904)">22</text></g><g clip-path="url(#clip25)"><text fill="#595959" font-family="Calibri,Calibri_MSFontService,sans-serif" font-weight="400" font-size="41" transform="matrix(1 0 0 1 1352.57 812)">24</text></g><g clip-path="url(#clip26)"><text fill="#595959" font-family="Calibri,Calibri_MSFontService,sans-serif" font-weight="400" font-size="41" transform="matrix(1 0 0 1 1352.57 720)">26</text></g><g clip-path="url(#clip27)"><text fill="#595959" font-family="Calibri,Calibri_MSFontService,sans-serif" font-weight="400" font-size="41" transform="matrix(1 0 0 1 1352.57 628)">28</text></g><g clip-path="url(#clip28)"><text fill="#595959" font-family="Calibri,Calibri_MSFontService,sans-serif" font-weight="400" font-size="41" transform="matrix(1 0 0 1 1352.57 537)">30</text></g><g clip-path="url(#clip29)"><text fill="#595959" font-family="Calibri,Calibri_MSFontService,sans-serif" font-weight="400" font-size="41" transform="matrix(1 0 0 1 1352.57 445)">32</text></g><g clip-path="url(#clip30)"><text fill="#595959" font-family="Calibri,Calibri_MSFontService,sans-serif" font-weight="400" font-size="41" transform="matrix(1 0 0 1 1422.19 1969)">0</text></g><g clip-path="url(#clip31)"><text fill="#595959" font-family="Calibri,Calibri_MSFontService,sans-serif" font-weight="400" font-size="41" transform="matrix(1 0 0 1 1526.59 1969)">2</text></g><g clip-path="url(#clip32)"><text fill="#595959" font-family="Calibri,Calibri_MSFontService,sans-serif" font-weight="400" font-size="41" transform="matrix(1 0 0 1 1631 1969)">4</text></g><g clip-path="url(#clip33)"><text fill="#595959" font-family="Calibri,Calibri_MSFontService,sans-serif" font-weight="400" font-size="41" transform="matrix(1 0 0 1 1735.4 1969)">6</text></g><g clip-path="url(#clip34)"><text fill="#595959" font-family="Calibri,Calibri_MSFontService,sans-serif" font-weight="400" font-size="41" transform="matrix(1 0 0 1 1839.8 1969)">8</text></g><g clip-path="url(#clip35)"><text fill="#595959" font-family="Calibri,Calibri_MSFontService,sans-serif" font-weight="400" font-size="41" transform="matrix(1 0 0 1 1933.76 1969)">10</text></g><g clip-path="url(#clip36)"><text fill="#595959" font-family="Calibri,Calibri_MSFontService,sans-serif" font-weight="400" font-size="41" transform="matrix(1 0 0 1 2038.16 1969)">12</text></g><g clip-path="url(#clip37)"><text fill="#595959" font-family="Calibri,Calibri_MSFontService,sans-serif" font-weight="400" font-size="41" transform="matrix(1 0 0 1 2142.56 1969)">14</text></g><g clip-path="url(#clip38)"><text fill="#595959" font-family="Calibri,Calibri_MSFontService,sans-serif" font-weight="400" font-size="41" transform="matrix(1 0 0 1 2246.97 1969)">16</text></g><g clip-path="url(#clip39)"><text fill="#595959" font-family="Calibri,Calibri_MSFontService,sans-serif" font-weight="400" font-size="41" transform="matrix(1 0 0 1 2351.37 1969)">18</text></g><g clip-path="url(#clip40)"><text fill="#595959" font-family="Calibri,Calibri_MSFontService,sans-serif" font-weight="400" font-size="41" transform="matrix(1 0 0 1 2455.77 1969)">20</text></g><g clip-path="url(#clip41)"><text fill="#595959" font-family="Calibri,Calibri_MSFontService,sans-serif" font-weight="400" font-size="41" transform="matrix(1 0 0 1 2560.18 1969)">22</text></g><g clip-path="url(#clip42)"><text fill="#595959" font-family="Calibri,Calibri_MSFontService,sans-serif" font-weight="400" font-size="41" transform="matrix(1 0 0 1 2664.58 1969)">24</text></g><g clip-path="url(#clip43)"><text fill="#595959" font-family="Calibri,Calibri_MSFontService,sans-serif" font-weight="400" font-size="41" transform="matrix(1 0 0 1 2768.98 1969)">26</text></g><g clip-path="url(#clip44)"><text fill="#595959" font-family="Calibri,Calibri_MSFontService,sans-serif" font-weight="400" font-size="41" transform="matrix(1 0 0 1 2873.39 1969)">28</text></g><g clip-path="url(#clip45)"><text fill="#595959" font-family="Calibri,Calibri_MSFontService,sans-serif" font-weight="400" font-size="41" transform="matrix(1 0 0 1 2977.79 1969)">30</text></g><g clip-path="url(#clip46)"><text fill="#595959" font-family="Calibri,Calibri_MSFontService,sans-serif" font-weight="400" font-size="41" transform="matrix(1 0 0 1 3082.19 1969)">32</text></g><g clip-path="url(#clip47)"><text fill="#595959" font-family="Calibri,Calibri_MSFontService,sans-serif" font-weight="400" font-size="46" transform="matrix(6.12323e-17 -1 1 6.12323e-17 1326.88 1179)">S</text></g><g clip-path="url(#clip48)"><text fill="#595959" font-family="Calibri,Calibri_MSFontService,sans-serif" font-weight="400" font-size="46" transform="matrix(1 0 0 1 2255.82 2038)">p</text></g><g clip-path="url(#clip49)"><text fill="#595959" font-family="Calibri,Calibri_MSFontService,sans-serif" font-weight="400" font-size="64" transform="matrix(1 0 0 1 1546.63 358)">Ускорение при статично циклично балансиране</text></g><g clip-path="url(#clip50)"><path d="M1819.5 2145.5 1907.5 2145.5" stroke="#4472C4" stroke-width="6.875" stroke-linecap="round" stroke-linejoin="round" stroke-miterlimit="10" fill="none" fill-rule="evenodd"/></g><g clip-path="url(#clip51)"><path d="M1874 2145.5C1874 2151.31 1869.07 2156.02 1863 2156.02 1856.92 2156.02 1852 2151.31 1852 2145.5 1852 2139.69 1856.92 2134.98 1863 2134.98 1869.07 2134.98 1874 2139.69 1874 2145.5Z" stroke="#4472C4" stroke-width="3.4375" stroke-linejoin="round" stroke-miterlimit="10" fill="#4472C4"/></g><g clip-path="url(#clip52)"><text fill="#595959" font-family="Calibri,Calibri_MSFontService,sans-serif" font-weight="400" font-size="41" transform="matrix(1 0 0 1 1916.46 2157)">g=1</text></g><g clip-path="url(#clip53)"><path d="M2018.5 2145.5 2106.5 2145.5" stroke="#ED7D31" stroke-width="6.875" stroke-linecap="round" stroke-linejoin="round" stroke-miterlimit="10" fill="none" fill-rule="evenodd"/></g><g clip-path="url(#clip54)"><path d="M2073 2145.5C2073 2151.31 2068.07 2156.02 2062 2156.02 2055.93 2156.02 2051 2151.31 2051 2145.5 2051 2139.69 2055.93 2134.98 2062 2134.98 2068.07 2134.98 2073 2139.69 2073 2145.5Z" stroke="#ED7D31" stroke-width="3.4375" stroke-linejoin="round" stroke-miterlimit="10" fill="#ED7D31"/></g><g clip-path="url(#clip55)"><text fill="#595959" font-family="Calibri,Calibri_MSFontService,sans-serif" font-weight="400" font-size="41" transform="matrix(1 0 0 1 2115.54 2157)">g=4</text></g><g clip-path="url(#clip56)"><path d="M2217.5 2145.5 2305.5 2145.5" stroke="#A5A5A5" stroke-width="6.875" stroke-linecap="round" stroke-linejoin="round" stroke-miterlimit="10" fill="none" fill-rule="evenodd"/></g><g clip-path="url(#clip57)"><path d="M2272 2145.5C2272 2151.31 2267.07 2156.02 2261 2156.02 2254.93 2156.02 2250 2151.31 2250 2145.5 2250 2139.69 2254.93 2134.98 2261 2134.98 2267.07 2134.98 2272 2139.69 2272 2145.5Z" stroke="#A5A5A5" stroke-width="3.4375" stroke-linejoin="round" stroke-miterlimit="10" fill="#A5A5A5"/></g><g clip-path="url(#clip58)"><text fill="#595959" font-family="Calibri,Calibri_MSFontService,sans-serif" font-weight="400" font-size="41" transform="matrix(1 0 0 1 2314.62 2157)">g=16</text></g><g clip-path="url(#clip59)"><path d="M2437.5 2145.5 2525.5 2145.5" stroke="#FFC000" stroke-width="6.875" stroke-linecap="round" stroke-linejoin="round" stroke-miterlimit="10" fill="none" fill-rule="evenodd"/></g><g clip-path="url(#clip60)"><path d="M2492 2145.5C2492 2151.31 2487.07 2156.02 2481 2156.02 2474.93 2156.02 2470 2151.31 2470 2145.5 2470 2139.69 2474.93 2134.98 2481 2134.98 2487.07 2134.98 2492 2139.69 2492 2145.5Z" stroke="#FFC000" stroke-width="3.4375" stroke-linejoin="round" stroke-miterlimit="10" fill="#FFC000"/></g><g clip-path="url(#clip61)"><text fill="#595959" font-family="Calibri,Calibri_MSFontService,sans-serif" font-weight="400" font-size="41" transform="matrix(1 0 0 1 2534.59 2157)">HW</text></g></g></svg>