<svg width="1948" height="1949" xmlns="http://www.w3.org/2000/svg" xmlns:xlink="http://www.w3.org/1999/xlink" xml:space="preserve" overflow="hidden"><defs><clipPath id="clip0"><rect x="1226" y="263" width="1948" height="1949"/></clipPath><clipPath id="clip1"><rect x="1225" y="263" width="1949" height="1948"/></clipPath><clipPath id="clip2"><rect x="1225" y="263" width="1949" height="1948"/></clipPath><clipPath id="clip3"><rect x="1225" y="263" width="1949" height="1948"/></clipPath><clipPath id="clip4"><rect x="1225" y="263" width="1949" height="1948"/></clipPath><clipPath id="clip5"><rect x="1443" y="433" width="1663" height="1473"/></clipPath><clipPath id="clip6"><rect x="1225" y="263" width="1949" height="1948"/></clipPath><clipPath id="clip7"><rect x="1443" y="433" width="1663" height="1473"/></clipPath><clipPath id="clip8"><rect x="1225" y="263" width="1949" height="1948"/></clipPath><clipPath id="clip9"><rect x="1443" y="433" width="1663" height="1473"/></clipPath><clipPath id="clip10"><rect x="1225" y="263" width="1949" height="1948"/></clipPath><clipPath id="clip11"><rect x="1225" y="263" width="1949" height="1948"/></clipPath><clipPath id="clip12"><rect x="1225" y="263" width="1949" height="1948"/></clipPath><clipPath id="clip13"><rect x="1225" y="263" width="1949" height="1948"/></clipPath><clipPath id="clip14"><rect x="1225" y="263" width="1949" height="1948"/></clipPath><clipPath id="clip15"><rect x="1225" y="263" width="1949" height="1948"/></clipPath><clipPath id="clip16"><rect x="1225" y="263" width="1949" height="1948"/></clipPath><clipPath id="clip17"><rect x="1225" y="263" width="1949" height="1948"/></clipPath><clipPath id="clip18"><rect x="1225" y="263" width="1949" height="1948"/></clipPath><clipPath id="clip19"><rect x="1225" y="263" width="1949" height="1948"/></clipPath><clipPath id="clip20"><rect x="1225" y="263" width="1949" height="1948"/></clipPath><clipPath id="clip21"><rect x="1225" y="263" width="1949" height="1948"/></clipPath><clipPath id="clip22"><rect x="1225" y="263" width="1949" height="1948"/></clipPath><clipPath id="clip23"><rect x="1225" y="263" width="1949" height="1948"/></clipPath><clipPath id="clip24"><rect x="1225" y="263" width="1949" height="1948"/></clipPath><clipPath id="clip25"><rect x="1225" y="263" width="1949" height="1948"/></clipPath><clipPath id="clip26"><rect x="1225" y="263" width="1949" height="1948"/></clipPath><clipPath id="clip27"><rect x="1225" y="263" width="1949" height="1948"/></clipPath><clipPath id="clip28"><rect x="1225" y="263" width="1949" height="1948"/></clipPath><clipPath id="clip29"><rect x="1225" y="263" width="1949" height="1948"/></clipPath><clipPath id="clip30"><rect x="1225" y="263" width="1949" height="1948"/></clipPath><clipPath id="clip31"><rect x="1225" y="263" width="1949" height="1948"/></clipPath><clipPath id="clip32"><rect x="1225" y="263" width="1949" height="1948"/></clipPath><clipPath id="clip33"><rect x="1225" y="263" width="1949" height="1948"/></clipPath><clipPath id="clip34"><rect x="1225" y="263" width="1949" height="1948"/></clipPath><clipPath id="clip35"><rect x="1225" y="263" width="1949" height="1948"/></clipPath><clipPath id="clip36"><rect x="1225" y="263" width="1949" height="1948"/></clipPath><clipPath id="clip37"><rect x="1225" y="263" width="1949" height="1948"/></clipPath><clipPath id="clip38"><rect x="1225" y="263" width="1949" height="1948"/></clipPath><clipPath id="clip39"><rect x="1225" y="263" width="1949" height="1948"/></clipPath><clipPath id="clip40"><rect x="1225" y="263" width="1949" height="1948"/></clipPath><clipPath id="clip41"><rect x="1225" y="263" width="1949" height="1948"/></clipPath><clipPath id="clip42"><rect x="1225" y="263" width="1949" height="1948"/></clipPath><clipPath id="clip43"><rect x="1225" y="263" width="1949" height="1948"/></clipPath><clipPath id="clip44"><rect x="1225" y="263" width="1949" height="1948"/></clipPath><clipPath id="clip45"><rect x="1225" y="263" width="1949" height="1948"/></clipPath><clipPath id="clip46"><rect x="1225" y="263" width="1949" height="1948"/></clipPath></defs><g clip-path="url(#clip0)" transform="translate(-1226 -263)"><g clip-path="url(#clip1)"><path d="M1443.5 1658.55 3103.5 1658.55M1443.5 1413.55 3103.5 1413.55M1443.5 1168.54 3103.5 1168.54M1443.5 923.531 3103.5 923.531M1443.5 678.522 3103.5 678.522M1443.5 433.5 3103.5 433.5" stroke="#D9D9D9" stroke-width="3.4375" stroke-linejoin="round" stroke-miterlimit="10" fill="none"/></g><g clip-path="url(#clip2)"><path d="M1546.55 433.5 1546.55 1903.5M1650.55 433.5 1650.55 1903.5M1754.56 433.5 1754.56 1903.5M1857.56 433.5 1857.56 1903.5M1961.56 433.5 1961.56 1903.5M2065.57 433.5 2065.57 1903.5M2169.57 433.5 2169.57 1903.5M2272.57 433.5 2272.57 1903.5M2376.58 433.5 2376.58 1903.5M2480.58 433.5 2480.58 1903.5M2584.58 433.5 2584.58 1903.5M2687.59 433.5 2687.59 1903.5M2791.59 433.5 2791.59 1903.5M2895.6 433.5 2895.6 1903.5M2999.6 433.5 2999.6 1903.5M3103.5 433.5 3103.5 1903.5" stroke="#D9D9D9" stroke-width="3.4375" stroke-linejoin="round" stroke-miterlimit="10" fill="none"/></g><g clip-path="url(#clip3)"><path d="M0 0 0.000360892 1470" stroke="#BFBFBF" stroke-width="3.4375" stroke-linejoin="round" stroke-miterlimit="10" fill="none" fill-rule="evenodd" transform="matrix(1 0 0 -1 1443.5 1903.5)"/></g><g clip-path="url(#clip4)"><path d="M1443.5 1903.5 3103.5 1903.5" stroke="#BFBFBF" stroke-width="3.4375" stroke-linejoin="round" stroke-miterlimit="10" fill="none" fill-rule="evenodd"/></g><g clip-path="url(#clip5)"><path d="M1494.5 678.5 1546.55 715.524 1650.55 1230.54 1857.56 1345.54 2065.57 1393.55 2272.57 1417.55 2687.59 1460.55 3103.5 1522.5" stroke="#4472C4" stroke-width="6.875" stroke-linecap="round" stroke-linejoin="round" stroke-miterlimit="10" fill="none"/></g><g clip-path="url(#clip6)"><path d="M1505.09 678.59C1505.09 684.665 1500.17 689.59 1494.09 689.59 1488.02 689.59 1483.09 684.665 1483.09 678.59 1483.09 672.515 1488.02 667.591 1494.09 667.591 1500.17 667.591 1505.09 672.515 1505.09 678.59Z" stroke="#4472C4" stroke-width="3.4375" stroke-linejoin="round" stroke-miterlimit="10" fill="#4472C4"/><path d="M1557.09 715.59C1557.09 721.665 1552.17 726.59 1546.09 726.59 1540.02 726.59 1535.09 721.665 1535.09 715.59 1535.09 709.516 1540.02 704.591 1546.09 704.591 1552.17 704.591 1557.09 709.516 1557.09 715.59Z" stroke="#4472C4" stroke-width="3.4375" stroke-linejoin="round" stroke-miterlimit="10" fill="#4472C4"/><path d="M1661.09 1230.59C1661.09 1236.67 1656.17 1241.59 1650.09 1241.59 1644.02 1241.59 1639.09 1236.67 1639.09 1230.59 1639.09 1224.52 1644.02 1219.59 1650.09 1219.59 1656.17 1219.59 1661.09 1224.52 1661.09 1230.59Z" stroke="#4472C4" stroke-width="3.4375" stroke-linejoin="round" stroke-miterlimit="10" fill="#4472C4"/><path d="M1869.09 1345.59C1869.09 1351.67 1864.17 1356.59 1858.09 1356.59 1852.02 1356.59 1847.09 1351.67 1847.09 1345.59 1847.09 1339.52 1852.02 1334.59 1858.09 1334.59 1864.17 1334.59 1869.09 1339.52 1869.09 1345.59Z" stroke="#4472C4" stroke-width="3.4375" stroke-linejoin="round" stroke-miterlimit="10" fill="#4472C4"/><path d="M2076.09 1393.59C2076.09 1399.67 2071.17 1404.59 2065.09 1404.59 2059.02 1404.59 2054.09 1399.67 2054.09 1393.59 2054.09 1387.52 2059.02 1382.59 2065.09 1382.59 2071.17 1382.59 2076.09 1387.52 2076.09 1393.59Z" stroke="#4472C4" stroke-width="3.4375" stroke-linejoin="round" stroke-miterlimit="10" fill="#4472C4"/><path d="M2284.09 1417.59C2284.09 1423.67 2279.17 1428.59 2273.09 1428.59 2267.02 1428.59 2262.09 1423.67 2262.09 1417.59 2262.09 1411.52 2267.02 1406.59 2273.09 1406.59 2279.17 1406.59 2284.09 1411.52 2284.09 1417.59Z" stroke="#4472C4" stroke-width="3.4375" stroke-linejoin="round" stroke-miterlimit="10" fill="#4472C4"/><path d="M2699.09 1460.59C2699.09 1466.67 2694.16 1471.59 2688.09 1471.59 2682.01 1471.59 2677.09 1466.67 2677.09 1460.59 2677.09 1454.52 2682.01 1449.59 2688.09 1449.59 2694.16 1449.59 2699.09 1454.52 2699.09 1460.59Z" stroke="#4472C4" stroke-width="3.4375" stroke-linejoin="round" stroke-miterlimit="10" fill="#4472C4"/><path d="M3114.09 1522.59C3114.09 1528.67 3109.16 1533.59 3103.09 1533.59 3097.01 1533.59 3092.09 1528.67 3092.09 1522.59 3092.09 1516.52 3097.01 1511.59 3103.09 1511.59 3109.16 1511.59 3114.09 1516.52 3114.09 1522.59Z" stroke="#4472C4" stroke-width="3.4375" stroke-linejoin="round" stroke-miterlimit="10" fill="#4472C4"/></g><g clip-path="url(#clip7)"><path d="M1494.5 672.5 1546.55 711.524 1650.55 790.526 1857.56 927.531 2065.57 984.532 2272.57 1067.54 2687.59 1301.54 3103.5 1444.5" stroke="#ED7D31" stroke-width="6.875" stroke-linecap="round" stroke-linejoin="round" stroke-miterlimit="10" fill="none"/></g><g clip-path="url(#clip8)"><path d="M1505.09 672.59C1505.09 678.665 1500.17 683.59 1494.09 683.59 1488.02 683.59 1483.09 678.665 1483.09 672.59 1483.09 666.515 1488.02 661.59 1494.09 661.59 1500.17 661.59 1505.09 666.515 1505.09 672.59Z" stroke="#ED7D31" stroke-width="3.4375" stroke-linejoin="round" stroke-miterlimit="10" fill="#ED7D31"/><path d="M1557.09 711.59C1557.09 717.665 1552.17 722.59 1546.09 722.59 1540.02 722.59 1535.09 717.665 1535.09 711.59 1535.09 705.515 1540.02 700.591 1546.09 700.591 1552.17 700.591 1557.09 705.515 1557.09 711.59Z" stroke="#ED7D31" stroke-width="3.4375" stroke-linejoin="round" stroke-miterlimit="10" fill="#ED7D31"/><path d="M1661.09 790.59C1661.09 796.665 1656.17 801.59 1650.09 801.59 1644.02 801.59 1639.09 796.665 1639.09 790.59 1639.09 784.515 1644.02 779.591 1650.09 779.591 1656.17 779.591 1661.09 784.515 1661.09 790.59Z" stroke="#ED7D31" stroke-width="3.4375" stroke-linejoin="round" stroke-miterlimit="10" fill="#ED7D31"/><path d="M1869.09 927.59C1869.09 933.665 1864.17 938.59 1858.09 938.59 1852.02 938.59 1847.09 933.665 1847.09 927.59 1847.09 921.515 1852.02 916.591 1858.09 916.591 1864.17 916.591 1869.09 921.515 1869.09 927.59Z" stroke="#ED7D31" stroke-width="3.4375" stroke-linejoin="round" stroke-miterlimit="10" fill="#ED7D31"/><path d="M2076.09 984.59C2076.09 990.665 2071.17 995.59 2065.09 995.59 2059.02 995.59 2054.09 990.665 2054.09 984.59 2054.09 978.515 2059.02 973.591 2065.09 973.591 2071.17 973.591 2076.09 978.515 2076.09 984.59Z" stroke="#ED7D31" stroke-width="3.4375" stroke-linejoin="round" stroke-miterlimit="10" fill="#ED7D31"/><path d="M2284.09 1067.59C2284.09 1073.67 2279.17 1078.59 2273.09 1078.59 2267.02 1078.59 2262.09 1073.67 2262.09 1067.59 2262.09 1061.52 2267.02 1056.59 2273.09 1056.59 2279.17 1056.59 2284.09 1061.52 2284.09 1067.59Z" stroke="#ED7D31" stroke-width="3.4375" stroke-linejoin="round" stroke-miterlimit="10" fill="#ED7D31"/><path d="M2699.09 1301.59C2699.09 1307.67 2694.16 1312.59 2688.09 1312.59 2682.01 1312.59 2677.09 1307.67 2677.09 1301.59 2677.09 1295.52 2682.01 1290.59 2688.09 1290.59 2694.16 1290.59 2699.09 1295.52 2699.09 1301.59Z" stroke="#ED7D31" stroke-width="3.4375" stroke-linejoin="round" stroke-miterlimit="10" fill="#ED7D31"/><path d="M3114.09 1444.59C3114.09 1450.67 3109.16 1455.59 3103.09 1455.59 3097.01 1455.59 3092.09 1450.67 3092.09 1444.59 3092.09 1438.52 3097.01 1433.59 3103.09 1433.59 3109.16 1433.59 3114.09 1438.52 3114.09 1444.59Z" stroke="#ED7D31" stroke-width="3.4375" stroke-linejoin="round" stroke-miterlimit="10" fill="#ED7D31"/></g><g clip-path="url(#clip9)"><path d="M1494.5 677.5 1546.55 702.523 1650.55 756.525 1857.56 817.527 2065.57 898.53 2272.57 1006.53 2687.59 1274.54 3103.5 1425.5" stroke="#A5A5A5" stroke-width="6.875" stroke-linecap="round" stroke-linejoin="round" stroke-miterlimit="10" fill="none"/></g><g clip-path="url(#clip10)"><path d="M1505.09 677.59C1505.09 683.665 1500.17 688.59 1494.09 688.59 1488.02 688.59 1483.09 683.665 1483.09 677.59 1483.09 671.515 1488.02 666.591 1494.09 666.591 1500.17 666.591 1505.09 671.515 1505.09 677.59Z" stroke="#A5A5A5" stroke-width="3.4375" stroke-linejoin="round" stroke-miterlimit="10" fill="#A5A5A5"/><path d="M1557.09 702.59C1557.09 708.665 1552.17 713.59 1546.09 713.59 1540.02 713.59 1535.09 708.665 1535.09 702.59 1535.09 696.515 1540.02 691.591 1546.09 691.591 1552.17 691.591 1557.09 696.515 1557.09 702.59Z" stroke="#A5A5A5" stroke-width="3.4375" stroke-linejoin="round" stroke-miterlimit="10" fill="#A5A5A5"/><path d="M1661.09 756.59C1661.09 762.665 1656.17 767.59 1650.09 767.59 1644.02 767.59 1639.09 762.665 1639.09 756.59 1639.09 750.515 1644.02 745.591 1650.09 745.591 1656.17 745.591 1661.09 750.515 1661.09 756.59Z" stroke="#A5A5A5" stroke-width="3.4375" stroke-linejoin="round" stroke-miterlimit="10" fill="#A5A5A5"/><path d="M1869.09 817.59C1869.09 823.665 1864.17 828.59 1858.09 828.59 1852.02 828.59 1847.09 823.665 1847.09 817.59 1847.09 811.515 1852.02 806.591 1858.09 806.591 1864.17 806.591 1869.09 811.515 1869.09 817.59Z" stroke="#A5A5A5" stroke-width="3.4375" stroke-linejoin="round" stroke-miterlimit="10" fill="#A5A5A5"/><path d="M2076.09 898.59C2076.09 904.665 2071.17 909.59 2065.09 909.59 2059.02 909.59 2054.09 904.665 2054.09 898.59 2054.09 892.515 2059.02 887.591 2065.09 887.591 2071.17 887.591 2076.09 892.515 2076.09 898.59Z" stroke="#A5A5A5" stroke-width="3.4375" stroke-linejoin="round" stroke-miterlimit="10" fill="#A5A5A5"/><path d="M2284.09 1006.59C2284.09 1012.67 2279.17 1017.59 2273.09 1017.59 2267.02 1017.59 2262.09 1012.67 2262.09 1006.59 2262.09 1000.52 2267.02 995.591 2273.09 995.591 2279.17 995.591 2284.09 1000.52 2284.09 1006.59Z" stroke="#A5A5A5" stroke-width="3.4375" stroke-linejoin="round" stroke-miterlimit="10" fill="#A5A5A5"/><path d="M2699.09 1274.59C2699.09 1280.67 2694.16 1285.59 2688.09 1285.59 2682.01 1285.59 2677.09 1280.67 2677.09 1274.59 2677.09 1268.52 2682.01 1263.59 2688.09 1263.59 2694.16 1263.59 2699.09 1268.52 2699.09 1274.59Z" stroke="#A5A5A5" stroke-width="3.4375" stroke-linejoin="round" stroke-miterlimit="10" fill="#A5A5A5"/><path d="M3114.09 1425.59C3114.09 1431.67 3109.16 1436.59 3103.09 1436.59 3097.01 1436.59 3092.09 1431.67 3092.09 1425.59 3092.09 1419.52 3097.01 1414.59 3103.09 1414.59 3109.16 1414.59 3114.09 1419.52 3114.09 1425.59Z" stroke="#A5A5A5" stroke-width="3.4375" stroke-linejoin="round" stroke-miterlimit="10" fill="#A5A5A5"/></g><g clip-path="url(#clip11)"><text fill="#595959" font-family="Calibri,Calibri_MSFontService,sans-serif" font-weight="400" font-size="41" transform="matrix(1 0 0 1 1352.57 1915)">0.0</text></g><g clip-path="url(#clip12)"><text fill="#595959" font-family="Calibri,Calibri_MSFontService,sans-serif" font-weight="400" font-size="41" transform="matrix(1 0 0 1 1352.57 1670)">0.2</text></g><g clip-path="url(#clip13)"><text fill="#595959" font-family="Calibri,Calibri_MSFontService,sans-serif" font-weight="400" font-size="41" transform="matrix(1 0 0 1 1352.57 1425)">0.4</text></g><g clip-path="url(#clip14)"><text fill="#595959" font-family="Calibri,Calibri_MSFontService,sans-serif" font-weight="400" font-size="41" transform="matrix(1 0 0 1 1352.57 1180)">0.6</text></g><g clip-path="url(#clip15)"><text fill="#595959" font-family="Calibri,Calibri_MSFontService,sans-serif" font-weight="400" font-size="41" transform="matrix(1 0 0 1 1352.57 935)">0.8</text></g><g clip-path="url(#clip16)"><text fill="#595959" font-family="Calibri,Calibri_MSFontService,sans-serif" font-weight="400" font-size="41" transform="matrix(1 0 0 1 1352.57 690)">1.0</text></g><g clip-path="url(#clip17)"><text fill="#595959" font-family="Calibri,Calibri_MSFontService,sans-serif" font-weight="400" font-size="41" transform="matrix(1 0 0 1 1352.57 445)">1.2</text></g><g clip-path="url(#clip18)"><text fill="#595959" font-family="Calibri,Calibri_MSFontService,sans-serif" font-weight="400" font-size="41" transform="matrix(1 0 0 1 1432.59 1969)">0</text></g><g clip-path="url(#clip19)"><text fill="#595959" font-family="Calibri,Calibri_MSFontService,sans-serif" font-weight="400" font-size="41" transform="matrix(1 0 0 1 1536.35 1969)">2</text></g><g clip-path="url(#clip20)"><text fill="#595959" font-family="Calibri,Calibri_MSFontService,sans-serif" font-weight="400" font-size="41" transform="matrix(1 0 0 1 1640.1 1969)">4</text></g><g clip-path="url(#clip21)"><text fill="#595959" font-family="Calibri,Calibri_MSFontService,sans-serif" font-weight="400" font-size="41" transform="matrix(1 0 0 1 1743.85 1969)">6</text></g><g clip-path="url(#clip22)"><text fill="#595959" font-family="Calibri,Calibri_MSFontService,sans-serif" font-weight="400" font-size="41" transform="matrix(1 0 0 1 1847.61 1969)">8</text></g><g clip-path="url(#clip23)"><text fill="#595959" font-family="Calibri,Calibri_MSFontService,sans-serif" font-weight="400" font-size="41" transform="matrix(1 0 0 1 1940.91 1969)">10</text></g><g clip-path="url(#clip24)"><text fill="#595959" font-family="Calibri,Calibri_MSFontService,sans-serif" font-weight="400" font-size="41" transform="matrix(1 0 0 1 2044.66 1969)">12</text></g><g clip-path="url(#clip25)"><text fill="#595959" font-family="Calibri,Calibri_MSFontService,sans-serif" font-weight="400" font-size="41" transform="matrix(1 0 0 1 2148.41 1969)">14</text></g><g clip-path="url(#clip26)"><text fill="#595959" font-family="Calibri,Calibri_MSFontService,sans-serif" font-weight="400" font-size="41" transform="matrix(1 0 0 1 2252.17 1969)">16</text></g><g clip-path="url(#clip27)"><text fill="#595959" font-family="Calibri,Calibri_MSFontService,sans-serif" font-weight="400" font-size="41" transform="matrix(1 0 0 1 2355.92 1969)">18</text></g><g clip-path="url(#clip28)"><text fill="#595959" font-family="Calibri,Calibri_MSFontService,sans-serif" font-weight="400" font-size="41" transform="matrix(1 0 0 1 2459.67 1969)">20</text></g><g clip-path="url(#clip29)"><text fill="#595959" font-family="Calibri,Calibri_MSFontService,sans-serif" font-weight="400" font-size="41" transform="matrix(1 0 0 1 2563.43 1969)">22</text></g><g clip-path="url(#clip30)"><text fill="#595959" font-family="Calibri,Calibri_MSFontService,sans-serif" font-weight="400" font-size="41" transform="matrix(1 0 0 1 2667.18 1969)">24</text></g><g clip-path="url(#clip31)"><text fill="#595959" font-family="Calibri,Calibri_MSFontService,sans-serif" font-weight="400" font-size="41" transform="matrix(1 0 0 1 2770.93 1969)">26</text></g><g clip-path="url(#clip32)"><text fill="#595959" font-family="Calibri,Calibri_MSFontService,sans-serif" font-weight="400" font-size="41" transform="matrix(1 0 0 1 2874.69 1969)">28</text></g><g clip-path="url(#clip33)"><text fill="#595959" font-family="Calibri,Calibri_MSFontService,sans-serif" font-weight="400" font-size="41" transform="matrix(1 0 0 1 2978.44 1969)">30</text></g><g clip-path="url(#clip34)"><text fill="#595959" font-family="Calibri,Calibri_MSFontService,sans-serif" font-weight="400" font-size="41" transform="matrix(1 0 0 1 3082.19 1969)">32</text></g><g clip-path="url(#clip35)"><text fill="#595959" font-family="Calibri,Calibri_MSFontService,sans-serif" font-weight="400" font-size="46" transform="matrix(6.12323e-17 -1 1 6.12323e-17 1326.88 1180)">E</text></g><g clip-path="url(#clip36)"><text fill="#595959" font-family="Calibri,Calibri_MSFontService,sans-serif" font-weight="400" font-size="46" transform="matrix(1 0 0 1 2261.02 2038)">p</text></g><g clip-path="url(#clip37)"><text fill="#595959" font-family="Calibri,Calibri_MSFontService,sans-serif" font-weight="400" font-size="64" transform="matrix(1 0 0 1 1518.92 358)">Ефективност при статично циклично балансиране</text></g><g clip-path="url(#clip38)"><path d="M1921.5 2145.5 2009.5 2145.5" stroke="#4472C4" stroke-width="6.875" stroke-linecap="round" stroke-linejoin="round" stroke-miterlimit="10" fill="none" fill-rule="evenodd"/></g><g clip-path="url(#clip39)"><path d="M1976 2145.5C1976 2151.31 1971.08 2156.02 1965 2156.02 1958.93 2156.02 1954 2151.31 1954 2145.5 1954 2139.69 1958.93 2134.98 1965 2134.98 1971.08 2134.98 1976 2139.69 1976 2145.5Z" stroke="#4472C4" stroke-width="3.4375" stroke-linejoin="round" stroke-miterlimit="10" fill="#4472C4"/></g><g clip-path="url(#clip40)"><text fill="#595959" font-family="Calibri,Calibri_MSFontService,sans-serif" font-weight="400" font-size="41" transform="matrix(1 0 0 1 2018.33 2157)">g=1</text></g><g clip-path="url(#clip41)"><path d="M2118.5 2145.5 2206.5 2145.5" stroke="#ED7D31" stroke-width="6.875" stroke-linecap="round" stroke-linejoin="round" stroke-miterlimit="10" fill="none" fill-rule="evenodd"/></g><g clip-path="url(#clip42)"><path d="M2173 2145.5C2173 2151.31 2168.07 2156.02 2162 2156.02 2155.93 2156.02 2151 2151.31 2151 2145.5 2151 2139.69 2155.93 2134.98 2162 2134.98 2168.07 2134.98 2173 2139.69 2173 2145.5Z" stroke="#ED7D31" stroke-width="3.4375" stroke-linejoin="round" stroke-miterlimit="10" fill="#ED7D31"/></g><g clip-path="url(#clip43)"><text fill="#595959" font-family="Calibri,Calibri_MSFontService,sans-serif" font-weight="400" font-size="41" transform="matrix(1 0 0 1 2215.85 2157)">g=2</text></g><g clip-path="url(#clip44)"><path d="M2316.5 2145.5 2404.5 2145.5" stroke="#A5A5A5" stroke-width="6.875" stroke-linecap="round" stroke-linejoin="round" stroke-miterlimit="10" fill="none" fill-rule="evenodd"/></g><g clip-path="url(#clip45)"><path d="M2371 2145.5C2371 2151.31 2366.07 2156.02 2360 2156.02 2353.93 2156.02 2349 2151.31 2349 2145.5 2349 2139.69 2353.93 2134.98 2360 2134.98 2366.07 2134.98 2371 2139.69 2371 2145.5Z" stroke="#A5A5A5" stroke-width="3.4375" stroke-linejoin="round" stroke-miterlimit="10" fill="#A5A5A5"/></g><g clip-path="url(#clip46)"><text fill="#595959" font-family="Calibri,Calibri_MSFontService,sans-serif" font-weight="400" font-size="41" transform="matrix(1 0 0 1 2413.36 2157)">g=16</text></g></g></svg>